<svg width="65" height="65" viewBox="0 0 65 65" fill="none" xmlns="http://www.w3.org/2000/svg">
  <defs>
    <mask id="mask0_10859_4895">
      <path d="M57.8647 29.0109C52.865 26.8587 48.4905 23.9061 44.7393 20.1567C40.99 16.4074 38.0373 12.031 35.8851 7.03132C35.0589 5.11516 34.395 3.14552 33.886 1.12608C33.72 0.465846 33.128 0.00109863 32.4475 0.00109863C31.7669 0.00109863 31.1749 0.465846 31.009 1.12608C30.4999 3.14552 29.836 5.11332 29.0098 7.03132C26.8576 12.031 23.905 16.4074 20.1556 20.1567C16.4063 23.9061 12.0299 26.8587 7.03022 29.0109C5.11406 29.8371 3.14442 30.501 1.12498 31.0101C0.464747 31.176 0 31.768 0 32.4486C0 33.1291 0.464747 33.7211 1.12498 33.8871C3.14442 34.3961 5.11222 35.06 7.03022 35.8862C12.0299 38.0384 16.4045 40.9911 20.1556 44.7404C23.9068 48.4897 26.8576 52.8661 29.0098 57.8658C29.836 59.782 30.4999 61.7516 31.009 63.771C31.1749 64.4313 31.7669 64.896 32.4475 64.896C33.128 64.896 33.72 64.4313 33.886 63.771C34.395 61.7516 35.0589 59.7838 35.8851 57.8658C38.0373 52.8661 40.99 48.4916 44.7393 44.7404C48.4886 40.9911 52.865 38.0384 57.8647 35.8862C59.7809 35.06 61.7505 34.3961 63.7699 33.8871C64.4302 33.7211 64.8949 33.1291 64.8949 32.4486C64.8949 31.768 64.4302 31.176 63.7699 31.0101C61.7505 30.501 59.7827 29.8371 57.8647 29.0109Z" fill="white"/>
    </mask>
    <filter id="filter0_f_10859_4895" x="-19.8236" y="13.1523" width="39.2739" height="43.2171" filterUnits="userSpaceOnUse" color-interpolation-filters="sRGB">
      <feFlood flood-opacity="0" result="BackgroundImageFix"/>
      <feBlend mode="normal" in="SourceGraphic" in2="BackgroundImageFix" result="shape"/>
      <feGaussianBlur stdDeviation="2.45965" result="effect1_foregroundBlur_10859_4895"/>
    </filter>
    <filter id="filter1_f_10859_4895" x="-15.001" y="-40.257" width="84.8677" height="85.6878" filterUnits="userSpaceOnUse" color-interpolation-filters="sRGB">
      <feFlood flood-opacity="0" result="BackgroundImageFix"/>
      <feBlend mode="normal" in="SourceGraphic" in2="BackgroundImageFix" result="shape"/>
      <feGaussianBlur stdDeviation="11.8911" result="effect1_foregroundBlur_10859_4895"/>
    </filter>
    <filter id="filter2_f_10859_4895" x="-20.7758" y="11.9273" width="79.454" height="90.9166" filterUnits="userSpaceOnUse" color-interpolation-filters="sRGB">
      <feFlood flood-opacity="0" result="BackgroundImageFix"/>
      <feBlend mode="normal" in="SourceGraphic" in2="BackgroundImageFix" result="shape"/>
      <feGaussianBlur stdDeviation="10.1086" result="effect1_foregroundBlur_10859_4895"/>
    </filter>
    <filter id="filter3_f_10859_4895" x="-20.7758" y="11.9273" width="79.454" height="90.9166" filterUnits="userSpaceOnUse" color-interpolation-filters="sRGB">
      <feFlood flood-opacity="0" result="BackgroundImageFix"/>
      <feBlend mode="normal" in="SourceGraphic" in2="BackgroundImageFix" result="shape"/>
      <feGaussianBlur stdDeviation="10.1086" result="effect1_foregroundBlur_10859_4895"/>
    </filter>
    <filter id="filter4_f_10859_4895" x="-19.8449" y="15.459" width="79.7306" height="81.5048" filterUnits="userSpaceOnUse" color-interpolation-filters="sRGB">
      <feFlood flood-opacity="0" result="BackgroundImageFix"/>
      <feBlend mode="normal" in="SourceGraphic" in2="BackgroundImageFix" result="shape"/>
      <feGaussianBlur stdDeviation="10.1086" result="effect1_foregroundBlur_10859_4895"/>
    </filter>
    <filter id="filter5_f_10859_4895" x="29.8324" y="-11.5524" width="75.1172" height="73.7582" filterUnits="userSpaceOnUse" color-interpolation-filters="sRGB">
      <feFlood flood-opacity="0" result="BackgroundImageFix"/>
      <feBlend mode="normal" in="SourceGraphic" in2="BackgroundImageFix" result="shape"/>
      <feGaussianBlur stdDeviation="9.60613" result="effect1_foregroundBlur_10859_4895"/>
    </filter>
    <filter id="filter6_f_10859_4895" x="-38.5827" y="-16.2526" width="78.1352" height="78.7578" filterUnits="userSpaceOnUse" color-interpolation-filters="sRGB">
      <feFlood flood-opacity="0" result="BackgroundImageFix"/>
      <feBlend mode="normal" in="SourceGraphic" in2="BackgroundImageFix" result="shape"/>
      <feGaussianBlur stdDeviation="8.70591" result="effect1_foregroundBlur_10859_4895"/>
    </filter>
    <filter id="filter7_f_10859_4895" x="8.1068" y="-5.96578" width="78.877" height="77.5394" filterUnits="userSpaceOnUse" color-interpolation-filters="sRGB">
      <feFlood flood-opacity="0" result="BackgroundImageFix"/>
      <feBlend mode="normal" in="SourceGraphic" in2="BackgroundImageFix" result="shape"/>
      <feGaussianBlur stdDeviation="7.77473" result="effect1_foregroundBlur_10859_4895"/>
    </filter>
    <filter id="filter8_f_10859_4895" x="13.5873" y="-18.4881" width="56.2718" height="51.8102" filterUnits="userSpaceOnUse" color-interpolation-filters="sRGB">
      <feFlood flood-opacity="0" result="BackgroundImageFix"/>
      <feBlend mode="normal" in="SourceGraphic" in2="BackgroundImageFix" result="shape"/>
      <feGaussianBlur stdDeviation="6.95694" result="effect1_foregroundBlur_10859_4895"/>
    </filter>
    <filter id="filter9_f_10859_4895" x="-15.5259" y="-31.297" width="70.8565" height="69.3059" filterUnits="userSpaceOnUse" color-interpolation-filters="sRGB">
      <feFlood flood-opacity="0" result="BackgroundImageFix"/>
      <feBlend mode="normal" in="SourceGraphic" in2="BackgroundImageFix" result="shape"/>
      <feGaussianBlur stdDeviation="5.87598" result="effect1_foregroundBlur_10859_4895"/>
    </filter>
    <filter id="filter10_f_10859_4895" x="-14.1676" y="20.9644" width="55.5015" height="51.5714" filterUnits="userSpaceOnUse" color-interpolation-filters="sRGB">
      <feFlood flood-opacity="0" result="BackgroundImageFix"/>
      <feBlend mode="normal" in="SourceGraphic" in2="BackgroundImageFix" result="shape"/>
      <feGaussianBlur stdDeviation="7.27253" result="effect1_foregroundBlur_10859_4895"/>
    </filter>
    <linearGradient id="paint0_linear_10859_4895" x1="18.4474" y1="43.4202" x2="52.1528" y2="15.0035" gradientUnits="userSpaceOnUse">
      <stop stop-color="#4893FC"/>
      <stop offset="0.27" stop-color="#4893FC"/>
      <stop offset="0.776981" stop-color="#969DFF"/>
      <stop offset="1" stop-color="#BD99FE"/>
    </linearGradient>
  </defs>
  
  <g mask="url(#mask0_10859_4895)">
    <g filter="url(#filter0_f_10859_4895)">
      <ellipse cx="14.4072" cy="16.9504" rx="14.4072" ry="16.9504" transform="matrix(0.942341 0.334654 -0.334652 0.942342 -8.09058 13.9664)" fill="#FFE432"/>
    </g>
    <g filter="url(#filter1_f_10859_4895)">
      <ellipse cx="27.4329" cy="2.5869" rx="18.6516" ry="19.0617" fill="#FC413D"/>
    </g>
    <g filter="url(#filter2_f_10859_4895)">
      <ellipse cx="18.9512" cy="57.3856" rx="19.4934" ry="25.2529" transform="rotate(-2.79865 18.9512 57.3856)" fill="#00B95C"/>
    </g>
    <g filter="url(#filter3_f_10859_4895)">
      <ellipse cx="18.9512" cy="57.3856" rx="19.4934" ry="25.2529" transform="rotate(-2.79865 18.9512 57.3856)" fill="#00B95C"/>
    </g>
    <g filter="url(#filter4_f_10859_4895)">
      <ellipse cx="20.0204" cy="56.2114" rx="19.1065" ry="21.0345" transform="rotate(-31.3178 20.0204 56.2114)" fill="#00B95C"/>
    </g>
    <g filter="url(#filter5_f_10859_4895)">
      <ellipse cx="67.391" cy="25.3267" rx="18.3463" ry="17.6668" fill="#3186FF"/>
    </g>
    <g filter="url(#filter6_f_10859_4895)">
      <ellipse cx="21.222" cy="22.3842" rx="21.222" ry="22.3842" transform="matrix(0.795985 0.605316 -0.605314 0.795987 -2.85815 -7.53723)" fill="#FBBC04"/>
    </g>
    <g filter="url(#filter7_f_10859_4895)">
      <ellipse cx="24.4687" cy="22.6039" rx="24.4687" ry="22.6039" transform="matrix(0.824033 0.566542 -0.566539 0.824035 40.1882 0.315002)" fill="#3186FF"/>
    </g>
    <g filter="url(#filter8_f_10859_4895)">
      <path d="M54.9838 -2.33625C57.8168 1.51558 54.1765 9.00477 46.8529 14.3913C39.5293 19.7779 31.2957 21.022 28.4627 17.1702C25.6296 13.3184 29.27 5.82919 36.5935 0.442635C43.9171 -4.94392 52.1507 -6.18807 54.9838 -2.33625Z" fill="#749BFF"/>
    </g>
    <g filter="url(#filter9_f_10859_4895)">
      <ellipse cx="19.9023" cy="3.35597" rx="27.9712" ry="17.3877" transform="rotate(-42.848 19.9023 3.35597)" fill="#FC413D"/>
    </g>
    <g filter="url(#filter10_f_10859_4895)">
      <ellipse cx="13.5831" cy="46.7501" rx="14.9887" ry="8.71667" transform="rotate(35.592 13.5831 46.7501)" fill="#FFEE48"/>
    </g>
  </g>
</svg>
