<svg width="227" height="250" viewBox="0 0 227 250" fill="none" xmlns="http://www.w3.org/2000/svg">
<rect width="226.351" height="250" fill="white"/>
<path fill-rule="evenodd" clip-rule="evenodd" d="M53.6959 138.996L112.195 196.945V222.973H87.4067L27.8123 163.94V138.996H53.6959ZM138.471 138.996L196.97 196.945V222.973H172.182L112.587 163.94V138.996H138.471ZM27.0273 27.0273H160.568C182.843 32.6136 199.325 52.6015 199.325 76.4026C199.325 99.681 183.559 119.312 162.028 125.389H27.0273V110.615L43.9038 93.8978H147.91C157.664 93.8978 165.572 86.0649 165.572 76.4026C165.572 66.7403 157.664 58.9074 147.91 58.9074H43.9038L27.0273 42.1898V27.0273Z" fill="black"/>
</svg>
