<svg xmlns="http://www.w3.org/2000/svg" width="512" height="512" fill="none">
  <path fill="#000" d="M0 0h512v512H0z" />
  <path
    fill="#949CA6"
    fill-rule="evenodd"
    d="M64 32.008h302.43c50.445 12.775 87.771 58.484 87.771 112.914 0 53.234-35.705 98.127-84.467 112.025H64v-33.786l38.22-38.23h235.543c22.09 0 39.998-17.913 39.998-40.009 0-22.097-17.908-40.009-39.998-40.009H102.22L64 66.683V32.007Zm60.367 255.939 132.484 132.52v59.522h-56.14L65.75 344.99v-57.043h58.617Zm322.687 132.52L314.57 287.947h-58.616v57.043l134.961 134.999h56.139v-59.522Z"
    clip-rule="evenodd"
  />
</svg>
