<svg width="24" height="24" viewBox="0 0 24 24" fill="none" xmlns="http://www.w3.org/2000/svg">
<circle cx="12" cy="12" r="12" fill="#E5E5E5"/>
<path d="M15.6103 4.80176H6V6.22873L7.33165 7.56038H14.6897C14.9419 7.56038 15.1877 7.69361 15.3778 7.91865C15.5681 8.14401 15.6828 8.44006 15.6828 8.71901C15.6828 8.99937 15.567 9.31113 15.3739 9.55171C15.1804 9.79271 14.935 9.93281 14.6897 9.93281H7.33165L6 11.2645V12.6638H15.7166L15.75 12.6543C17.3834 12.1889 18.5517 10.4671 18.5517 8.71901C18.5517 6.92714 17.3261 5.23614 15.6403 4.80935L15.6103 4.80176Z" fill="#050507"/>
<path d="M12.0145 17.3457V18.6207H8.84216L6.0835 15.8621V12.6621H7.33099L12.0145 17.3457Z" fill="#050507"/>
<path d="M18.4686 17.3457V18.6208H15.2962L12.5376 15.8621V12.6621H13.7851L18.4686 17.3457Z" fill="#050507"/>
</svg>
