<svg width="14" height="15" viewBox="0 0 14 15" fill="none" xmlns="http://www.w3.org/2000/svg">
<path d="M1.97674 8.75C1.85847 8.7504 1.74251 8.71724 1.64234 8.65436C1.54216 8.59148 1.46189 8.50147 1.41083 8.39479C1.35978 8.2881 1.34005 8.16912 1.35393 8.05166C1.36781 7.93421 1.41473 7.8231 1.48924 7.73125L7.67674 1.35625C7.72315 1.30268 7.7864 1.26647 7.8561 1.25358C7.92581 1.24069 7.99782 1.25188 8.06032 1.28532C8.12283 1.31875 8.17211 1.37244 8.20008 1.43757C8.22804 1.5027 8.23304 1.57541 8.21424 1.64375L7.01424 5.40625C6.97886 5.50095 6.96697 5.60283 6.97961 5.70313C6.99225 5.80343 7.02903 5.89918 7.0868 5.98214C7.14457 6.06511 7.2216 6.13282 7.31129 6.17948C7.40098 6.22613 7.50064 6.25033 7.60174 6.25H11.9767C12.095 6.2496 12.211 6.28276 12.3111 6.34564C12.4113 6.40852 12.4916 6.49853 12.5426 6.60521C12.5937 6.7119 12.6134 6.83088 12.5996 6.94834C12.5857 7.06579 12.5388 7.1769 12.4642 7.26875L6.27674 13.6437C6.23033 13.6973 6.16708 13.7335 6.09738 13.7464C6.02768 13.7593 5.95566 13.7481 5.89316 13.7147C5.83066 13.6813 5.78138 13.6276 5.75341 13.5624C5.72544 13.4973 5.72044 13.4246 5.73924 13.3562L6.93924 9.59375C6.97463 9.49905 6.98651 9.39718 6.97387 9.29687C6.96123 9.19657 6.92445 9.10082 6.86668 9.01786C6.80892 8.93489 6.73188 8.86718 6.64219 8.82052C6.5525 8.77387 6.45284 8.74967 6.35174 8.75H1.97674Z" stroke="#FBD362" stroke-linecap="round" stroke-linejoin="round"/>
</svg>
