<svg width="572" height="211" viewBox="0 0 572 211" fill="none" xmlns="http://www.w3.org/2000/svg">
<g clip-path="url(#clip0_6_23223)">
<path d="M460.483 139.569L460.483 99.1787L503.341 99.1787L571.5 167.339L571.5 210.711L531.626 210.711L460.483 139.569Z" fill="#0064C7"/>
<path d="M419.173 98.26L419.173 57.8694L462.031 57.8694L530.19 126.03L530.19 169.402L490.316 169.402L419.173 98.26Z" fill="#38A430"/>
<path d="M389.225 68.3921L389.225 28.0015L432.081 28.0015L500.241 96.1616L500.241 139.535L460.367 139.535L389.225 68.3921Z" fill="#F9B700"/>
<path d="M361.844 41.0051L361.844 0.621347L404.707 0.621344L471.332 67.2463L471.332 110.618L431.458 110.618L361.844 41.0051Z" fill="#E5342A"/>
<path d="M361.244 40.3272L361.244 0.0605542L404.225 0.0605505L445.334 41.1699L445.334 84.542L405.46 84.542L361.244 40.3272Z" fill="#CED2D4"/>
<path d="M376.645 139.857L376.645 99.4668L419.501 99.4668L487.661 167.627L487.661 211L447.787 211L376.645 139.857Z" fill="#0064C7"/>
<path d="M335.331 98.5469L335.331 58.1563L378.187 58.1563L446.347 126.316L446.347 169.689L406.473 169.689L335.331 98.5469Z" fill="#38A430"/>
<path d="M305.389 68.6841L305.389 28.2935L348.245 28.2935L416.405 96.4536L416.405 139.826L376.531 139.826L305.389 68.6841Z" fill="#F9B700"/>
<path d="M278.001 41.2908L278.001 0.907969L320.865 0.907965L387.489 67.531L387.489 110.905L347.615 110.905L278.001 41.2908Z" fill="#E5342A"/>
<path d="M277.409 40.6165L277.409 0.351814L320.391 0.35181L361.499 41.4602L361.499 84.8333L321.626 84.8333L277.409 40.6165Z" fill="#CED2D4"/>
<path d="M292.561 139.857L292.561 99.4668L335.417 99.4668L403.577 167.628L403.577 211L363.703 211L292.561 139.857Z" fill="#0064C7"/>
<path d="M251.253 98.5466L251.253 58.156L294.109 58.156L362.27 126.316L362.27 169.689L322.396 169.689L251.253 98.5466Z" fill="#38A430"/>
<path d="M221.302 68.6841L221.302 28.2935L264.158 28.2935L332.318 96.4536L332.318 139.826L292.443 139.826L221.302 68.6841Z" fill="#F9B700"/>
<path d="M193.917 41.2918L193.917 0.907969L236.781 0.907965L303.405 67.532L303.405 110.905L263.531 110.905L193.917 41.2918Z" fill="#E5342A"/>
<path d="M193.321 40.6174L193.321 0.351814L236.302 0.35181L277.411 41.4612L277.411 84.8333L237.537 84.8333L193.321 40.6174Z" fill="#CED2D4"/>
<path d="M208.488 139.857L208.488 99.4668L251.344 99.4668L319.504 167.627L319.504 211L279.63 211L208.488 139.857Z" fill="#0064C7"/>
<path d="M167.173 98.5469L167.173 58.1563L210.03 58.1563L278.19 126.316L278.19 169.689L238.316 169.689L167.173 98.5469Z" fill="#38A430"/>
<path d="M137.228 68.6841L137.228 28.2935L180.084 28.2935L248.245 96.4536L248.245 139.826L208.37 139.826L137.228 68.6841Z" fill="#F9B700"/>
<path d="M109.843 41.2908L109.843 0.907969L152.708 0.907965L219.332 67.532L219.332 110.905L179.458 110.905L109.843 41.2908Z" fill="#E5342A"/>
<path d="M109.243 40.6174L109.243 0.351814L152.224 0.35181L193.333 41.4612L193.333 84.8333L153.459 84.8333L109.243 40.6174Z" fill="#CED2D4"/>
</g>
<defs>
<clipPath id="clip0_6_23223">
<rect width="571" height="210.939" fill="white" transform="translate(0.5 0.0605469)"/>
</clipPath>
</defs>
</svg>
