<svg width="28" height="21" viewBox="0 0 28 21" fill="none" xmlns="http://www.w3.org/2000/svg">
<path d="M23.0876 1.90279C21.4251 1.12779 19.6251 0.565292 17.7501 0.240292C17.7337 0.239766 17.7174 0.242851 17.7022 0.24933C17.6871 0.255809 17.6736 0.265525 17.6626 0.277792C17.4376 0.690292 17.1751 1.22779 17.0001 1.64029C15.0114 1.34029 12.9889 1.34029 11.0001 1.64029C10.8251 1.21529 10.5626 0.690292 10.3251 0.277792C10.3126 0.252792 10.2751 0.240292 10.2376 0.240292C8.36265 0.565292 6.57515 1.12779 4.90015 1.90279C4.88765 1.90279 4.87515 1.91529 4.86265 1.92779C1.46265 7.01529 0.525147 11.9653 0.987647 16.8653C0.987647 16.8903 1.00015 16.9153 1.02515 16.9278C3.27515 18.5778 5.43765 19.5778 7.57515 20.2403C7.61265 20.2528 7.65015 20.2403 7.66265 20.2153C8.16265 19.5278 8.61265 18.8028 9.00015 18.0403C9.02515 17.9903 9.00015 17.9403 8.95015 17.9278C8.23765 17.6528 7.56265 17.3278 6.90015 16.9528C6.85015 16.9278 6.85015 16.8528 6.88765 16.8153C7.02515 16.7153 7.16265 16.6028 7.30015 16.5028C7.32515 16.4778 7.36265 16.4778 7.38765 16.4903C11.6876 18.4528 16.3251 18.4528 20.5751 16.4903C20.6001 16.4778 20.6376 16.4778 20.6626 16.5028C20.8001 16.6153 20.9376 16.7153 21.0751 16.8278C21.1251 16.8653 21.1251 16.9403 21.0626 16.9653C20.4126 17.3528 19.7251 17.6653 19.0126 17.9403C18.9626 17.9528 18.9501 18.0153 18.9626 18.0528C19.3626 18.8153 19.8126 19.5403 20.3001 20.2278C20.3376 20.2403 20.3751 20.2528 20.4126 20.2403C22.5626 19.5778 24.7251 18.5778 26.9751 16.9278C27.0001 16.9153 27.0126 16.8903 27.0126 16.8653C27.5626 11.2028 26.1001 6.29029 23.1376 1.92779C23.1251 1.91529 23.1126 1.90279 23.0876 1.90279ZM9.65015 13.8778C8.36265 13.8778 7.28765 12.6903 7.28765 11.2278C7.28765 9.76529 8.33765 8.57779 9.65015 8.57779C10.9751 8.57779 12.0251 9.77779 12.0126 11.2278C12.0126 12.6903 10.9626 13.8778 9.65015 13.8778ZM18.3626 13.8778C17.0751 13.8778 16.0001 12.6903 16.0001 11.2278C16.0001 9.76529 17.0501 8.57779 18.3626 8.57779C19.6876 8.57779 20.7376 9.77779 20.7251 11.2278C20.7251 12.6903 19.6876 13.8778 18.3626 13.8778Z" fill="#E9EDF1"/>
</svg>
