<svg width="500" height="123" viewBox="0 0 500 123" fill="none" xmlns="http://www.w3.org/2000/svg">
<path d="M79.2479 1.04319H0L0 12.8102L10.9809 23.7911H71.656C73.7359 23.7911 75.7631 24.8897 77.3302 26.7454C78.8995 28.6038 79.8453 31.045 79.8453 33.3453C79.8453 35.6572 78.8905 38.228 77.2979 40.2118C75.7024 42.1991 73.6786 43.3544 71.656 43.3544H10.9809L0 54.3353L0 65.8748H80.1244L80.3994 65.7965C93.8689 61.9586 103.503 47.7604 103.503 33.3453C103.503 18.5693 93.3961 4.62517 79.4952 1.10581L79.2479 1.04319Z" fill="white"/>
<path d="M184.714 1.80027L107.693 1.80027V119.787L184.714 119.787V96.7151L133.469 96.7151V70.9381H181.971V70.8794H184.6V48.2452H181.971V48.2138H133.469V25.3276H184.714V1.80027Z" fill="white"/>
<path fill-rule="evenodd" clip-rule="evenodd" d="M355.84 1.80027H327.652L290.719 98.8347V120.242H309.316L318.149 95.0282L365.361 95.0282L374.354 120.242L393.084 120.242V97.8799L355.84 1.80027ZM326.071 72.4645L338.872 31.7529H344.389L357.415 72.4645H326.071Z" fill="white"/>
<path d="M423.626 55.1833H397.85V119.787H445.86V96.7151H423.626V55.1833Z" fill="white"/>
<path d="M476.856 55.1833H451.08V119.787H500V96.7151H476.856V55.1833Z" fill="white"/>
<path d="M189.019 87.9737V33.8137C191.518 27.3159 195.064 21.5445 199.703 16.4932C209.724 5.56196 223.27 0.000140841 239.815 0.000140841C253.035 0.000140841 264.441 3.76272 273.94 11.0227L273.956 11.0346L273.972 11.0469C281.414 16.9641 286.687 24.938 289.755 34.7949V45.5672H266.976L266.574 43.9871C264.819 37.0933 261.496 31.8357 256.981 28.3662C252.429 24.8677 246.689 22.9254 239.815 22.9254C230.475 22.9254 223.362 26.3312 218.23 32.9049C213.054 39.5351 210.342 48.8223 210.342 61.0213C210.342 73.3976 213.062 82.8231 218.216 89.278L218.223 89.287L218.23 89.296C223.347 95.8508 230.448 99.1172 239.815 99.1172C246.962 99.1172 252.977 97.0393 258.135 92.6348L258.139 92.6311C263.084 88.4327 266.128 82.453 267.303 74.6287L267.572 72.8338H289.755V87.7985C286.966 96.7923 282.101 104.177 275.075 109.87C265.097 118.113 253.357 122.042 239.815 122.042C223.429 122.042 210.035 116.642 199.858 105.391C195.165 100.354 191.558 94.5451 189.019 87.9737Z" fill="white"/>
<path d="M49.5905 109.273V119.787H23.4307L0.682438 97.0392L0.682438 70.6519H10.9694L49.5905 109.273Z" fill="white"/>
<path d="M102.821 109.273V119.787H76.6609L53.913 97.039V70.6514H64.1997L102.821 109.273Z" fill="white"/>
<path d="M407.537 1.72618L446.159 40.3476V50.8617H419.999L397.251 28.1138V1.72618H407.537Z" fill="white"/>
<path d="M460.767 1.72618L499.388 40.3476V50.8617H473.228L450.48 28.1138V1.72618H460.767Z" fill="white"/>
</svg>
