<svg width="436" height="500" viewBox="0 0 436 500" fill="none" xmlns="http://www.w3.org/2000/svg">
<title>Recall</title>
<path d="M333.691 0H0V49.5478L46.2376 95.7854H301.724C310.482 95.7854 319.018 100.411 325.616 108.225C332.225 116.05 336.207 126.33 336.207 136.015C336.207 145.75 332.187 156.575 325.481 164.929C318.763 173.296 310.241 178.161 301.724 178.161H46.2376L0 224.399V272.988H337.382L338.54 272.658C395.257 256.498 435.824 196.713 435.824 136.015C435.824 73.7979 393.266 15.0827 334.733 0.263628L333.691 0Z" fill="white"/>
<path d="M208.812 455.726V500H98.6603L2.87356 404.213V293.103H46.1894L208.812 455.726Z" fill="white"/>
<path d="M432.952 455.725V499.998H322.799L227.013 404.212V293.101H270.328L432.952 455.725Z" fill="white"/>
</svg>
