<svg width="106" height="24" viewBox="0 0 106 24" fill="none" xmlns="http://www.w3.org/2000/svg">
<path d="M15.5844 0.324392L7.09328e-07 0.324392L5.80584e-07 2.63842L2.15944 4.79786L14.0914 4.79786C14.5005 4.79786 14.8991 5.0139 15.2073 5.37883C15.5159 5.74429 15.7019 6.22436 15.7019 6.67673C15.7019 7.13137 15.5141 7.63693 15.2009 8.02705C14.8872 8.41786 14.4892 8.64505 14.0914 8.64505H2.15944L1.26255e-07 10.8045L0 13.0738H15.7568L15.8109 13.0584C18.4597 12.3036 20.3543 9.51151 20.3543 6.67673C20.3543 3.77097 18.3667 1.0288 15.633 0.336707L15.5844 0.324392Z" fill="#A7A7A7"/>
<path d="M9.75202 21.6081V23.6757H4.6076L0.134063 19.2022L0.134063 14.0131H2.15703L9.75202 21.6081Z" fill="#A7A7A7"/>
<path d="M20.22 21.6079V23.6756H15.0755L10.602 19.2021V14.0129H12.625L20.22 21.6079Z" fill="#A7A7A7"/>
<path d="M37.5984 0.398741L22.4519 0.39874L22.4519 23.6013H37.5984V19.0641H27.5209V13.995L37.059 13.995V13.9834H37.576V9.53231H37.059V9.52614H27.5209V5.02548L37.5984 5.02548V0.398741Z" fill="#A7A7A7"/>
<path d="M39.696 17.3003V6.64957C40.1875 5.37175 40.8848 4.23678 41.7971 3.24342C43.7678 1.09375 46.4316 -1.8102e-07 49.6853 0C52.285 1.44641e-07 54.5281 0.739926 56.3961 2.16763L56.3992 2.16997L56.4024 2.17239C57.8659 3.33603 58.9028 4.90413 59.5062 6.84252V8.96094L55.0266 8.96094L54.9475 8.6502C54.6024 7.29451 53.9489 6.26058 53.061 5.57829C52.1659 4.8903 51.0371 4.50834 49.6853 4.50834C47.8485 4.50834 46.4497 5.1781 45.4405 6.47085C44.4226 7.7747 43.8893 9.60106 43.8893 12C43.8893 14.4339 44.4242 16.2875 45.4377 17.5568L45.4405 17.5604C46.4468 18.8494 47.8432 19.4917 49.6853 19.4917C51.0907 19.4917 52.2736 19.0831 53.288 18.217L53.2887 18.2162C54.2612 17.3906 54.8598 16.2147 55.0909 14.676L55.1438 14.323H59.5062V17.2659C58.9577 19.0346 58.001 20.4868 56.6193 21.6063C54.6571 23.2273 52.3484 24 49.6853 24C46.4629 24 43.8289 22.9381 41.8276 20.7255C40.9047 19.735 40.1953 18.5926 39.696 17.3003Z" fill="#A7A7A7"/>
<path fill-rule="evenodd" clip-rule="evenodd" d="M74.4101 0.354056L68.8668 0.354056L61.6038 19.4362V23.6461H65.261L66.998 18.6877H76.2824L78.0509 23.6461H81.7343V19.2485L74.4101 0.354056ZM68.5559 14.2504L71.0733 6.24436L72.1582 6.24436L74.7198 14.2504H68.5559Z" fill="#A7A7A7"/>
<path d="M89.0184 10.904H83.9494V23.6085H93.3908V19.0714H89.0184V10.904Z" fill="#A7A7A7"/>
<path d="M85.8547 0.391466L93.4499 7.98652V10.0542L88.3054 10.0542L83.8319 5.58069V0.391466L85.8547 0.391466Z" fill="#A7A7A7"/>
<path d="M100.734 10.904H95.6654V23.6085H105.286V19.0714H100.734V10.904Z" fill="#A7A7A7"/>
<path d="M97.5705 0.391466L105.165 7.98652V10.0542L100.021 10.0542L95.5475 5.58069V0.391466L97.5705 0.391466Z" fill="#A7A7A7"/>
</svg>
