<svg width="20" height="20" viewBox="0 0 20 20" fill="none" xmlns="http://www.w3.org/2000/svg">
<rect x="2" y="2" width="16" height="16" rx="8" fill="#E9EDF1"/>
<path d="M12.1543 6.13867H7V6.90401L7.7142 7.61821H11.6606C11.7958 7.61821 11.9277 7.68966 12.0296 7.81036C12.1317 7.93123 12.1932 8.09001 12.1932 8.23962C12.1932 8.38999 12.1311 8.5572 12.0275 8.68622C11.9237 8.81548 11.7921 8.89062 11.6606 8.89062H7.7142L7 9.60483V10.3554H12.2113L12.2292 10.3503C13.1053 10.1006 13.7319 9.17719 13.7319 8.23962C13.7319 7.27858 13.0745 6.37165 12.1704 6.14274L12.1543 6.13867Z" fill="#050507"/>
<path d="M10.2259 13.177V13.8608H8.52448L7.04492 12.3813V10.665H7.71399L10.2259 13.177Z" fill="#050507"/>
<path d="M13.6878 13.177V13.8609H11.9864L10.5068 12.3813V10.665H11.1759L13.6878 13.177Z" fill="#050507"/>
</svg>
