<svg width="8" height="9" viewBox="0 0 8 9" fill="none" xmlns="http://www.w3.org/2000/svg">
<title>Recall Token</title>
<path d="M6.1309 0.639032H0.976562V1.40437L1.69077 2.11857H5.63711C5.77239 2.11857 5.90424 2.19002 6.00617 2.31072C6.10824 2.43159 6.16975 2.59037 6.16975 2.73998C6.16975 2.89035 6.10765 3.05756 6.00407 3.18658C5.90029 3.31584 5.76867 3.39098 5.63711 3.39098H1.69077L0.976562 4.10519V4.85572H6.1879L6.20579 4.85063C7.08186 4.60101 7.70846 3.67755 7.70846 2.73998C7.70846 1.77894 7.0511 0.872007 6.14698 0.643105L6.1309 0.639032Z" fill="#050507"/>
<path d="M4.2025 7.67734V8.36118H2.50105L1.02148 6.88165V5.1654H1.69056L4.2025 7.67734Z" fill="#050507"/>
<path d="M7.66441 7.67737V8.36121H5.96294L4.4834 6.88167V5.1654H5.15245L7.66441 7.67737Z" fill="#050507"/>
</svg>
