<svg width="30" height="31" viewBox="0 0 30 31" fill="none" xmlns="http://www.w3.org/2000/svg">
<path fill-rule="evenodd" clip-rule="evenodd" d="M27.8567 6.65421C28.3018 7.1131 28.6179 7.68132 28.7731 8.3015C29.1877 10.5997 29.3889 12.9313 29.3743 15.2665C29.3825 17.5668 29.1813 19.8631 28.7731 22.1269C28.6179 22.7471 28.3018 23.3153 27.8567 23.7742C27.4115 24.2331 26.8532 24.5664 26.2381 24.7404C23.9904 25.3415 15 25.3415 15 25.3415C15 25.3415 6.00956 25.3415 3.76195 24.7404C3.1593 24.5755 2.60937 24.258 2.16529 23.8185C1.7212 23.379 1.39798 22.8324 1.22685 22.2315C0.812309 19.9333 0.611084 17.6017 0.625747 15.2665C0.614295 12.9487 0.815506 10.6348 1.22685 8.35377C1.38208 7.73359 1.69822 7.16537 2.14334 6.70648C2.58846 6.2476 3.14679 5.9143 3.76195 5.74027C6.00956 5.13916 15 5.13916 15 5.13916C15 5.13916 23.9904 5.13916 26.2381 5.688C26.8532 5.86203 27.4115 6.19533 27.8567 6.65421ZM19.5735 15.2664L12.0597 19.5395V10.9934L19.5735 15.2664Z" fill="#E9EDF1"/>
</svg>
