<svg xmlns="http://www.w3.org/2000/svg" fill="none" viewBox="0 0 63 158" height="158" width="63">
<g clip-path="url(#clip0_62_3119)">
<path fill-opacity="0.84" fill="#43505F" d="M9.13427 66.3594H2.99217V66.3631H-0.389648V79.0011H6.37381V72.6583H9.13427C12.9023 72.6583 15.9549 75.4964 15.9549 78.9993C15.9549 82.5023 12.9023 85.3403 9.13427 85.3403V91.6393C16.6441 91.6393 22.7302 85.9812 22.7302 78.9993C22.7302 72.0174 16.6441 66.3594 9.13427 66.3594ZM38.2433 91.6355C30.7347 91.6355 24.6496 85.9783 24.6496 78.9974C24.6496 72.0166 30.7347 66.3594 38.2433 66.3594V72.6583C34.4766 72.6583 31.4249 75.4955 31.4249 78.9974C31.4249 82.4995 34.4766 85.3366 38.2433 85.3366V91.6355ZM53.2863 91.6393H59.4284V91.6356H62.8102V78.9976H56.0467V85.3403H53.2863C49.5182 85.3403 46.4656 82.5023 46.4656 78.9993C46.4656 75.4964 49.5182 72.6584 53.2863 72.6584V66.3594C45.7765 66.3594 39.6905 72.0175 39.6905 78.9993C39.6905 85.9812 45.7765 91.6393 53.2863 91.6393Z" clip-rule="evenodd" fill-rule="evenodd"></path>
</g>
<defs>
<clipPath id="clip0_62_3119">
<rect fill="white" height="158" width="63"></rect>
</clipPath>
</defs>
</svg>
