<svg xmlns="http://www.w3.org/2000/svg" fill="none" viewBox="0 0 158 158" height="158" width="158">
  <path fill-opacity="0.84" fill="#43505F" d="M14.9558 71.8441L16.0063 81.653C16.0492 82.0427 16.0706 82.3892 16.0706 82.6707C16.0706 83.6234 15.7919 83.9482 14.3127 83.9915V84.3596C15.1273 84.338 16.478 84.3163 17.8715 84.3163C19.265 84.3163 20.7014 84.338 21.6447 84.3596V83.9915C19.9725 83.9266 19.7796 83.3852 19.5866 81.653L18.6219 72.8185C18.6004 72.6019 18.579 72.2772 18.579 72.0606C18.579 70.8047 18.9006 70.2201 20.6371 70.2201V69.852C19.6295 69.8736 18.7076 69.8736 17.8929 69.8736C16.5852 69.8736 15.5347 69.852 14.8701 69.8303L11.8686 78.6432L8.76002 69.8303C8.05255 69.852 7.00204 69.8736 5.90867 69.8736C4.81529 69.8736 3.67904 69.8736 2.84292 69.852V70.2201C4.49371 70.2201 4.87961 70.8047 4.87961 72.0606C4.87961 72.2988 4.85817 72.5586 4.83673 72.8185L3.70047 81.7179C3.48608 83.3203 3.07875 83.9699 1.53516 84.0132V84.3596C2.32839 84.338 3.12163 84.3163 4.02205 84.3163C4.92248 84.3163 5.88723 84.338 7.00205 84.3596V83.9915C5.07256 83.9266 4.57946 83.6884 4.57946 82.4758C4.57946 82.216 4.6009 81.8479 4.64378 81.5014L5.69428 71.7791L10.3894 84.4029H10.5394L14.9558 71.8441ZM32.0996 83.5801V83.3636L31.9496 83.3419C31.5208 83.277 31.4136 83.0388 31.4136 82.4108V78.405C31.4136 76.1098 31.4565 75.0271 31.4993 74.3126L31.4136 74.2692C30.3202 74.6157 28.7766 74.9621 27.4045 75.0704V75.3303L27.6189 75.3952C28.2192 75.5684 28.2835 75.9149 28.2835 76.283V82.8656C28.0477 82.9089 27.6618 82.9089 27.5117 82.9089C26.1397 82.9089 25.8181 82.086 25.8181 80.0723V78.405C25.8181 76.1098 25.861 75.0271 25.9038 74.3126L25.8181 74.2692C24.7247 74.6157 23.1597 74.9621 21.7876 75.0704V75.3303L22.002 75.3952C22.6023 75.5684 22.6666 75.9149 22.6666 76.283V81.7396C22.6666 83.3419 23.5241 84.5762 24.982 84.5762C26.0325 84.5762 27.4045 83.7966 28.2835 83.0604C28.2621 83.6667 28.2192 84.1431 28.1549 84.5329L28.2407 84.5762C29.2054 84.2514 30.9848 83.8616 32.0996 83.5801ZM37.5865 84.0348L37.4578 84.0132C36.8575 83.9049 36.8575 83.7966 36.8575 82.1077V72.039C36.8575 70.2634 36.9219 68.791 36.9647 68.3363L36.8575 68.293C35.9142 68.6611 33.9847 69.2674 32.9128 69.5055V69.6138L33.4702 70.415C33.7275 70.7831 33.7275 71.0646 33.7275 71.3461V82.1077C33.7275 83.7966 33.7275 83.9049 33.1272 84.0132L32.9986 84.0348V84.3596C33.4702 84.338 34.3921 84.3163 35.2925 84.3163C36.2144 84.3163 37.1148 84.338 37.5865 84.3596V84.0348ZM41.9251 84.5762C43.5759 84.5762 44.9477 83.4285 45.698 82.151L45.6123 82.0427C44.9906 82.4108 44.4331 82.4974 43.876 82.4974C42.997 82.4974 42.2252 82.3675 42.2252 81.4797V75.6984L44.8405 75.7417C45.0978 75.5251 45.4837 74.7673 45.4837 74.3992L42.2252 74.5074C42.2252 73.8578 42.311 72.6886 42.3539 72.3205L42.2252 72.2555C41.1962 73.2732 39.4168 74.6157 38.2376 75.3303V75.4169L39.1166 76.5212C39.0952 77.5822 39.0952 79.6825 39.0952 82.3675C39.0952 83.6884 40.2957 84.5762 41.9251 84.5762ZM50.3438 70.9996C50.3438 69.9819 49.5506 69.2457 48.6287 69.2457C47.7068 69.2457 46.9136 69.9819 46.9136 70.9996C46.9136 72.0173 47.7068 72.7535 48.6287 72.7535C49.5506 72.7535 50.3438 72.0173 50.3438 70.9996ZM50.8155 84.0348L50.6868 84.0132C50.0866 83.9049 50.0866 83.7966 50.0866 82.1077V77.4523C50.0866 75.6767 50.1294 74.6157 50.1723 74.161L50.0651 74.1177C49.1647 74.5507 47.321 75.2653 46.249 75.5901V75.6984L46.6992 76.4779C46.9565 76.8893 46.9565 77.1275 46.9565 77.4089V82.1077C46.9565 83.7966 46.9565 83.9049 46.3562 84.0132L46.2276 84.0348V84.3596C46.6992 84.338 47.6211 84.3163 48.5215 84.3163C49.4434 84.3163 50.3438 84.338 50.8155 84.3596V84.0348ZM51.6137 79.8125C51.6137 82.6707 53.5646 84.5762 56.2659 84.5762C58.0239 84.5762 59.8248 83.3203 60.425 81.4581L60.3179 81.3931C59.7176 82.151 58.9243 82.4541 58.1525 82.4541C56.0301 82.4541 54.6795 80.8302 54.6795 78.2318C54.6795 76.3696 55.6013 74.8972 56.8019 74.8972C57.981 74.8972 57.4879 77.1058 59.053 77.1058C59.6318 77.1058 60.2107 76.6078 60.2107 75.9798C60.2107 74.7456 58.5813 74.1826 57.2735 74.1826C54.4007 74.1826 51.6137 76.4995 51.6137 79.8125ZM66.5308 74.1826C63.6795 74.1826 61.0425 76.3479 61.0425 79.4444C61.0425 82.4975 63.6795 84.5762 66.5308 84.5762C69.4036 84.5762 72.0406 82.4108 72.0406 79.3144C72.0406 76.2613 69.4036 74.1826 66.5308 74.1826ZM66.5308 84.0998C65.223 84.0998 64.537 81.8912 64.537 79.1845C64.537 76.3479 65.223 74.659 66.5308 74.659C67.86 74.659 68.5461 76.8676 68.5461 79.5743C68.5461 82.4108 67.86 84.0998 66.5308 84.0998ZM77.0808 70.9996C77.0808 69.9819 76.2876 69.2457 75.3657 69.2457C74.4439 69.2457 73.6506 69.9819 73.6506 70.9996C73.6506 72.0173 74.4439 72.7535 75.3657 72.7535C76.2876 72.7535 77.0808 72.0173 77.0808 70.9996ZM77.5525 84.0348L77.4239 84.0132C76.8236 83.9049 76.8236 83.7966 76.8236 82.1077V77.4523C76.8236 75.6767 76.8664 74.6157 76.9093 74.161L76.8021 74.1177C75.9017 74.5507 74.058 75.2653 72.986 75.5901V75.6984L73.4362 76.4779C73.6935 76.8893 73.6935 77.1275 73.6935 77.4089V82.1077C73.6935 83.7966 73.6935 83.9049 73.0932 84.0132L72.9646 84.0348V84.3596C73.4362 84.338 74.3581 84.3163 75.2585 84.3163C76.1804 84.3163 77.0808 84.338 77.5525 84.3596V84.0348ZM88.8128 84.0348L88.6842 84.0132C88.0839 83.9049 88.0839 83.7966 88.0839 82.1077V77.0192C88.0839 75.3736 87.0334 74.1826 85.6613 74.1826C84.5465 74.1826 83.1959 75.1787 82.2955 75.8932C82.3169 75.3736 82.3383 74.5507 82.3812 74.161L82.274 74.1177C81.3736 74.5507 79.5299 75.2653 78.4579 75.5901V75.6984L78.9081 76.4779C79.1654 76.8893 79.1654 77.1275 79.1654 77.4089V82.1077C79.1654 83.7966 79.1654 83.9049 78.5651 84.0132L78.4365 84.0348V84.3596C78.9081 84.338 79.83 84.3163 80.7304 84.3163C81.6523 84.3163 82.5527 84.338 83.0244 84.3596V84.0348L82.8957 84.0132C82.2955 83.9049 82.2955 83.7966 82.2955 82.1077V76.1747C82.617 76.0448 82.9601 76.0231 83.1744 76.0231C84.4822 76.0231 84.9539 77.279 84.9539 79.2062V82.1077C84.9539 83.7966 84.9539 83.9049 84.3536 84.0132L84.2249 84.0348V84.3596C84.6966 84.338 85.6185 84.3163 86.5189 84.3163C87.4408 84.3163 88.3412 84.338 88.8128 84.3596V84.0348ZM102.971 82.649C100.055 82.649 97.7828 80.1373 97.7828 76.3046C97.7828 72.6236 99.8195 70.4366 102.371 70.4366C103.657 70.4366 104.6 70.978 105.286 71.7791C105.887 72.4504 106.423 73.4897 106.809 74.5507L107.023 74.4208L106.53 70.7181C105.136 70.0252 103.893 69.6355 102.242 69.6355C97.9329 69.6355 93.9667 72.6019 93.9667 77.3873C93.9667 81.8912 97.5899 84.5762 101.492 84.5762C103.486 84.5762 105.415 83.8183 106.787 82.4541L107.688 79.8774L107.452 79.7691C106.466 81.8045 104.943 82.649 102.971 82.649ZM108.417 82.1727C108.417 83.5801 109.36 84.4895 110.69 84.4895C111.826 84.4895 112.576 83.5368 113.069 82.9089C113.455 83.8616 114.206 84.5112 115.471 84.5112C116.671 84.5112 117.614 83.3852 117.722 82.4108L117.657 82.3675C117.486 82.4975 117.271 82.6274 116.95 82.6274C116.392 82.6274 116.135 82.3459 116.135 81.653C116.135 80.3321 116.242 77.907 116.242 76.3913C116.242 74.724 114.356 74.1826 113.134 74.1826C110.947 74.1826 108.589 76.6727 108.589 78.1235C108.589 78.2967 108.653 78.3617 108.739 78.3617C109.06 78.3617 110.347 78.1019 110.647 78.0152C110.54 77.6255 110.454 77.0842 110.454 76.6078C110.454 76.0015 110.711 75.6984 111.333 75.6984C112.598 75.6984 113.112 76.5212 113.112 77.2357V78.9896L110.239 80.2239C109.103 80.7219 108.417 81.0467 108.417 82.1727ZM113.091 79.3577L113.069 82.6707C112.941 82.714 112.834 82.7356 112.683 82.7356C111.976 82.7356 111.483 82.2809 111.483 81.3498C111.483 80.7002 111.783 80.3538 112.19 80.0506L113.091 79.3577ZM123.625 89.3399L122.703 89.2749C122.124 89.2316 122.103 89.1233 122.103 87.4344V84.2297C122.768 84.4679 123.261 84.5762 123.947 84.5762C126.627 84.5762 129.435 82.4975 129.435 78.6865C129.435 76.0015 127.87 74.1826 125.576 74.1826C124.054 74.1826 122.81 75.3302 122.103 75.9365C122.103 75.4818 122.146 74.5724 122.189 74.161L122.082 74.1177C121.181 74.5507 119.337 75.2869 118.265 75.5901V75.6984L118.716 76.4779C118.973 76.8893 118.973 77.1275 118.973 77.4089V87.456C118.973 89.145 118.973 89.2532 118.373 89.3615L118.244 89.3832V89.708C118.844 89.6863 119.616 89.6647 120.645 89.6647C121.674 89.6647 122.939 89.6863 123.625 89.708V89.3399ZM122.103 81.025V76.1314C122.425 76.0448 122.81 76.0231 123.132 76.0231C124.89 76.0231 126.048 77.6255 126.048 79.9207C126.048 82.4108 125.147 83.9266 123.775 83.9266C122.725 83.9266 122.103 83.1687 122.103 81.025ZM134.471 70.9996C134.471 69.9819 133.678 69.2457 132.756 69.2457C131.834 69.2457 131.041 69.9819 131.041 70.9996C131.041 72.0173 131.834 72.7535 132.756 72.7535C133.678 72.7535 134.471 72.0173 134.471 70.9996ZM134.943 84.0348L134.814 84.0132C134.214 83.9049 134.214 83.7966 134.214 82.1077V77.4523C134.214 75.6767 134.257 74.6157 134.299 74.161L134.192 74.1177C133.292 74.5507 131.448 75.2653 130.376 75.5901V75.6984L130.826 76.4779C131.084 76.8893 131.084 77.1275 131.084 77.4089V82.1077C131.084 83.7966 131.084 83.9049 130.483 84.0132L130.355 84.0348V84.3596C130.826 84.338 131.748 84.3163 132.649 84.3163C133.571 84.3163 134.471 84.338 134.943 84.3596V84.0348ZM139.278 84.5762C140.929 84.5762 142.301 83.4285 143.052 82.151L142.966 82.0427C142.344 82.4108 141.787 82.4974 141.229 82.4974C140.35 82.4974 139.578 82.3675 139.578 81.4797V75.6984L142.194 75.7417C142.451 75.5251 142.837 74.7673 142.837 74.3992L139.578 74.5074C139.578 73.8578 139.664 72.6886 139.707 72.3205L139.578 72.2555C138.549 73.2732 136.77 74.6157 135.591 75.3303V75.4169L136.47 76.5212C136.448 77.5822 136.448 79.6825 136.448 82.3675C136.448 83.6884 137.649 84.5762 139.278 84.5762ZM143.6 82.1727C143.6 83.5801 144.543 84.4895 145.872 84.4895C147.008 84.4895 147.759 83.5368 148.252 82.9089C148.638 83.8616 149.388 84.5112 150.653 84.5112C151.854 84.5112 152.797 83.3852 152.904 82.4108L152.84 82.3675C152.668 82.4975 152.454 82.6274 152.132 82.6274C151.575 82.6274 151.318 82.3459 151.318 81.653C151.318 80.3321 151.425 77.907 151.425 76.3913C151.425 74.724 149.538 74.1826 148.316 74.1826C146.129 74.1826 143.771 76.6727 143.771 78.1235C143.771 78.2967 143.835 78.3617 143.921 78.3617C144.243 78.3617 145.529 78.1019 145.829 78.0152C145.722 77.6255 145.636 77.0842 145.636 76.6078C145.636 76.0015 145.894 75.6984 146.515 75.6984C147.78 75.6984 148.295 76.5212 148.295 77.2357V78.9896L145.422 80.2239C144.286 80.7219 143.6 81.0467 143.6 82.1727ZM148.273 79.3577L148.252 82.6707C148.123 82.714 148.016 82.7356 147.866 82.7356C147.158 82.7356 146.665 82.2809 146.665 81.3498C146.665 80.7002 146.966 80.3538 147.373 80.0506L148.273 79.3577ZM157.971 84.0348L157.842 84.0132C157.242 83.9049 157.242 83.7966 157.242 82.1077V72.039C157.242 70.2634 157.306 68.791 157.349 68.3363L157.242 68.293C156.299 68.6611 154.369 69.2674 153.297 69.5055V69.6138L153.855 70.415C154.112 70.7831 154.112 71.0646 154.112 71.3461V82.1077C154.112 83.7966 154.112 83.9049 153.512 84.0132L153.383 84.0348V84.3596C153.855 84.338 154.776 84.3163 155.677 84.3163C156.599 84.3163 157.499 84.338 157.971 84.3596V84.0348Z"></path>
</svg>
