<svg xmlns="http://www.w3.org/2000/svg" fill="none" viewBox="0 0 75 158" height="158" width="75">
<g clip-path="url(#clip0_62_3117)">
<path fill-opacity="0.84" fill="#43505F" d="M0.0800781 41.0801H75.9201V116.92H0.0800781V41.0801ZM16.582 70.7383V79.6799C16.582 83.8932 19.0164 86.0467 23.2765 86.0233C27.4197 86.0233 29.9945 83.9869 29.9945 79.6097V70.7148H25.6407V79.4224C25.6407 81.6929 25.0555 82.6526 23.2765 82.6526C21.4274 82.6526 20.9124 81.6227 20.9124 79.4926V70.7383H16.582ZM31.7031 81.0119H35.7994C35.9165 82.0887 36.3846 82.9781 38.187 82.9781C39.4276 82.9781 40.1298 82.3695 40.1298 81.4801C40.1298 80.5438 39.568 80.3097 37.7422 80.0288C33.4821 79.5138 32.0542 78.2498 32.0542 75.2303C32.0542 72.515 34.2779 70.5254 37.8827 70.5254C41.5108 70.5254 43.5473 72.0469 43.8282 75.2303H39.8255C39.6851 74.1535 39.0765 73.6152 37.8827 73.6152C36.7357 73.6152 36.1271 74.1301 36.1271 74.9026C36.1271 75.7452 36.5953 76.1198 38.4679 76.3772C42.2833 76.7986 44.2495 77.7817 44.2495 81.0587C44.2495 83.8208 42.0492 86.0679 38.187 86.0679C33.9971 86.0445 31.8436 84.2655 31.7031 81.0119ZM49.2362 70.7383H44.5781L49.5639 85.7892H54.4795L59.395 70.7383H55.3455L52.2792 81.3184L49.2362 70.7383Z" clip-rule="evenodd" fill-rule="evenodd"></path>
</g>
<defs>
<clipPath id="clip0_62_3117">
<rect fill="white" height="158" width="75"></rect>
</clipPath>
</defs>
</svg>
