<svg xmlns="http://www.w3.org/2000/svg" fill="none" viewBox="0 0 116 158" height="158" width="116">
<path fill-opacity="0.84" fill="#43505F" d="M24.067 74.0926C19.94 74.0926 16.711 77.2261 16.711 81.4295C16.711 85.6329 19.8636 88.7473 24.067 88.7473C28.2895 88.7473 31.4803 85.5756 31.4803 81.4104C31.4994 77.2452 28.3469 74.0926 24.067 74.0926ZM24.1052 85.7093C21.7551 85.7093 20.0355 83.8751 20.0355 81.4295C20.0355 78.9456 21.736 77.1305 24.0861 77.1305C26.4744 77.1305 28.194 78.9839 28.194 81.4295C28.1749 83.8751 26.4553 85.7093 24.1052 85.7093ZM32.3974 77.2834H34.4418V88.4607H37.7281V74.3601H32.3974V77.2834ZM8.45701 77.1114C10.1766 77.1114 11.5523 78.1814 12.0681 79.7481H15.5455C14.915 76.3663 12.1254 74.0735 8.49522 74.0735C4.34911 74.0926 1.12012 77.2261 1.12012 81.4295C1.12012 85.6329 4.27269 88.7473 8.47611 88.7473C12.0299 88.7473 14.8768 86.4545 15.5073 83.0535H12.0681C11.5714 84.6394 10.2148 85.7284 8.47611 85.7284C6.0878 85.7284 4.42554 83.8942 4.42554 81.4486C4.42554 78.9456 6.0687 77.1114 8.45701 77.1114ZM94.7801 80.0538L92.3727 79.6908C91.2263 79.5188 90.4047 79.1367 90.4047 78.2387C90.4047 77.2643 91.4747 76.7675 92.9268 76.7675C94.5126 76.7675 95.5252 77.4553 95.7545 78.5635H98.9262C98.5632 75.7358 96.385 74.0735 93.0223 74.0735C89.5449 74.0735 87.2521 75.8504 87.2521 78.3533C87.2521 80.7608 88.7615 82.1364 91.7995 82.5759L94.2069 82.9389C95.3915 83.1109 96.0411 83.5694 96.0411 84.4483C96.0411 85.5756 94.8947 86.0341 93.3089 86.0341C91.36 86.0341 90.271 85.2508 90.099 84.0471H86.87C87.1757 86.7984 89.3347 88.7282 93.2707 88.7282C96.8627 88.7282 99.2319 87.085 99.2319 84.2763C99.2128 81.7734 97.4741 80.4742 94.7801 80.0538ZM36.085 68.5517C34.8813 68.5517 33.9833 69.4306 33.9833 70.6152C33.9833 71.8189 34.8813 72.6787 36.085 72.6787C37.2887 72.6787 38.1867 71.7998 38.1867 70.6152C38.1867 69.4306 37.2887 68.5517 36.085 68.5517ZM84.2715 79.194C84.2715 76.137 82.4182 74.0926 78.4631 74.0926C74.7374 74.0926 72.6548 75.9841 72.2535 78.8692H75.5016C75.6736 77.7419 76.5334 76.8248 78.4058 76.8248C80.0681 76.8248 80.8897 77.57 80.8897 78.468C80.8897 79.6335 79.3803 79.9392 77.5269 80.1302C75.0049 80.3977 71.8905 81.2766 71.8905 84.5438C71.8905 87.085 73.7821 88.7091 76.7818 88.7091C79.1319 88.7091 80.6031 87.7346 81.3482 86.1679C81.4629 87.5627 82.4946 88.4607 83.9467 88.4607H85.8574V85.5374H84.2333L84.2715 79.194ZM81.0425 82.7287C81.0425 84.6203 79.3994 85.9959 77.4123 85.9959C76.1895 85.9959 75.1386 85.4801 75.1386 84.391C75.1386 82.9962 76.8009 82.6141 78.3485 82.4612C79.8197 82.3275 80.6413 82.0027 81.0616 81.3722C81.0425 81.3722 81.0425 82.7287 81.0425 82.7287ZM63.6174 74.0926C61.7832 74.0926 60.2547 74.8569 59.1656 76.137V68.418H55.8793V88.4607H59.1083V86.6073C60.1974 87.9448 61.7641 88.7282 63.6174 88.7282C67.5534 88.7282 70.534 85.6138 70.534 81.4104C70.534 77.2069 67.496 74.0926 63.6174 74.0926ZM63.1206 85.7093C60.7705 85.7093 59.051 83.8751 59.051 81.4295C59.051 78.9839 60.8088 77.1305 63.1589 77.1305C65.5472 77.1305 67.2094 78.9647 67.2094 81.4295C67.1903 83.8751 65.4707 85.7093 63.1206 85.7093ZM48.0074 74.0926C45.8675 74.0926 44.4727 74.9715 43.6511 76.1943V74.3601H40.403V88.4607H43.6894V80.799C43.6894 78.6399 45.065 77.1114 47.0903 77.1114C48.9819 77.1114 50.1473 78.4489 50.1473 80.3786V88.4607H53.4337V80.1494C53.4337 76.5955 51.5994 74.0926 48.0074 74.0926ZM114.861 80.9518C114.861 76.9204 111.899 74.0735 107.944 74.0735C103.722 74.0735 100.646 77.2452 100.646 81.4104C100.646 85.8049 103.951 88.7282 108.002 88.7282C111.422 88.7282 114.097 86.7029 114.785 83.856H111.365C110.868 85.117 109.664 85.824 108.059 85.824C105.957 85.824 104.372 84.5056 104.009 82.232H114.88L114.861 80.9518ZM104.18 79.8628C104.696 77.8948 106.187 76.9395 107.868 76.9395C109.721 76.9395 111.154 78.0094 111.479 79.8628H104.18Z"></path>
</svg>
