<svg xmlns="http://www.w3.org/2000/svg" fill="none" viewBox="0 0 95 158" height="158" width="95">
  <path fill-opacity="0.84" fill="#43505F" d="M89.9842 87.0689H93.0002V70.541H89.7213V77.5815H89.6781C89.2988 77.0714 88.8147 76.7108 88.2241 76.4996C87.6349 76.2883 86.997 76.182 86.3117 76.182C85.553 76.182 84.8762 76.3386 84.2785 76.6519C83.6793 76.9651 83.1735 77.3846 82.7583 77.9091C82.343 78.4335 82.0227 79.0341 81.797 79.7123C81.5701 80.3891 81.4579 81.1003 81.4579 81.8431C81.4579 82.6449 81.5816 83.382 81.8301 84.0516C82.0773 84.7225 82.4307 85.3016 82.8905 85.7901C83.3503 86.2786 83.9006 86.6566 84.5415 86.9266C85.1823 87.1967 85.8964 87.3318 86.6837 87.3318C87.0488 87.3318 87.4022 87.2801 87.7442 87.1781C88.0862 87.0761 88.3994 86.9454 88.6839 86.7844C88.9669 86.6235 89.2155 86.4453 89.4268 86.2485C89.6379 86.0516 89.8104 85.8591 89.9411 85.6695H89.9842V87.0689ZM89.296 79.8115C89.7543 80.3072 89.9842 80.9552 89.9842 81.7569C89.9842 82.5587 89.7558 83.2067 89.296 83.7024C88.8376 84.1981 88.1939 84.4453 87.3619 84.4453C86.53 84.4453 85.8863 84.1981 85.4265 83.7024C84.9682 83.2067 84.7383 82.5587 84.7383 81.7569C84.7383 80.9552 84.9667 80.3072 85.4265 79.8115C85.8863 79.3172 86.5314 79.0686 87.3619 79.0686C88.1925 79.0686 88.8362 79.3158 89.296 79.8115ZM10.456 73.6228C11.1256 73.9289 11.6801 74.3657 12.117 74.9346L12.1184 74.9361L13.867 73.6027C13.2406 72.7866 12.436 72.1817 11.4517 71.788C10.4674 71.3943 9.46598 71.1974 8.44582 71.1974C7.25036 71.1974 6.15837 71.4015 5.16694 71.8095C4.17552 72.2176 3.32634 72.7895 2.61941 73.5251C1.91248 74.2622 1.36217 75.1358 0.968474 76.1488C0.574777 77.1617 0.37793 78.2652 0.37793 79.4607C0.37793 80.4377 0.558973 81.4032 0.923931 82.3573C1.28745 83.3128 1.81621 84.1692 2.50877 84.9264C3.20133 85.6835 4.03901 86.2956 5.02326 86.7627C6.00749 87.2296 7.11099 87.4624 8.33519 87.4624C9.2246 87.4624 10.0077 87.3489 10.6859 87.1233C11.3641 86.8977 11.9431 86.6347 12.4244 86.3359C12.9043 86.037 13.2909 85.7382 13.5825 85.4393C13.8742 85.1405 14.0782 84.912 14.1946 84.7511L12.4244 83.4177C11.9575 84.0729 11.3885 84.5844 10.7189 84.9479C10.0479 85.3115 9.2835 85.4939 8.37973 85.4939C7.47595 85.4939 6.66701 85.333 5.95289 85.0126C5.23878 84.6921 4.63387 84.2554 4.13816 83.7007C3.64244 83.1476 3.26455 82.5053 3.00161 81.7768C2.73867 81.0483 2.60791 80.2753 2.60791 79.4592C2.60791 78.5842 2.74585 77.7652 3.02316 76.9994C3.30047 76.235 3.68986 75.5683 4.19276 74.9993C4.69565 74.4303 5.30057 73.982 6.00749 73.6544C6.71442 73.3268 7.50469 73.163 8.37973 73.163C9.0924 73.163 9.785 73.3168 10.456 73.6228ZM15.6562 79.7669C15.3717 80.4235 15.2295 81.1305 15.2295 81.8877C15.2295 82.645 15.3717 83.3561 15.6562 84.0185C15.9408 84.6823 16.3302 85.2571 16.8259 85.7456C17.3201 86.2341 17.9035 86.6192 18.5744 86.9037C19.2441 87.1882 19.9668 87.3305 20.7384 87.3305C21.51 87.3305 22.2312 87.1882 22.9023 86.9037C23.5718 86.6206 24.1551 86.2341 24.6509 85.7456C25.1466 85.2571 25.536 84.6823 25.8205 84.0185C26.105 83.3561 26.2472 82.645 26.2472 81.8877C26.2472 81.1305 26.105 80.4221 25.8205 79.7669C25.536 79.1117 25.1466 78.5356 24.6509 78.0399C24.1551 77.5442 23.5718 77.1548 22.9023 76.8703C22.2326 76.5858 21.5114 76.4435 20.7384 76.4435C19.9653 76.4435 19.2441 76.5858 18.5744 76.8703C17.9049 77.1548 17.3216 77.5442 16.8259 78.0399C16.3302 78.5356 15.9408 79.1103 15.6562 79.7669ZM17.5686 83.3418C17.4092 82.8963 17.3287 82.4121 17.3287 81.8877C17.3287 81.3632 17.4078 80.8776 17.5686 80.4336C17.7296 79.9897 17.9552 79.6103 18.2469 79.2971C18.5385 78.9839 18.8963 78.7367 19.3187 78.5543C19.7412 78.3718 20.2154 78.2813 20.7398 78.2813C21.2643 78.2813 21.7384 78.3718 22.1608 78.5543C22.5847 78.7367 22.941 78.9839 23.2327 79.2971C23.5244 79.6103 23.75 79.9897 23.9109 80.4336C24.0704 80.879 24.1509 81.3632 24.1509 81.8877C24.1509 82.4121 24.0719 82.8977 23.9109 83.3418C23.75 83.7858 23.5244 84.1651 23.2327 84.4783C22.941 84.7916 22.5833 85.0387 22.1608 85.2212C21.7384 85.4036 21.2643 85.4942 20.7398 85.4942C20.2154 85.4942 19.7412 85.4036 19.3187 85.2212C18.8949 85.0401 18.5385 84.7916 18.2469 84.4783C17.9552 84.1651 17.7282 83.7872 17.5686 83.3418ZM27.8877 72.9896C27.8877 72.5959 28.0299 72.2569 28.3144 71.9738C28.599 71.6893 28.9381 71.5471 29.3317 71.5471C29.7254 71.5471 30.0645 71.6893 30.3475 71.9738C30.632 72.2583 30.7744 72.5974 30.7744 72.9896C30.7744 73.3819 30.632 73.7224 30.3475 74.0069C30.0631 74.2914 29.724 74.4337 29.3317 74.4337C28.9395 74.4337 28.599 74.2914 28.3144 74.0069C28.0299 73.7224 27.8877 73.3833 27.8877 72.9896ZM28.3461 76.7067H30.313V87.0692H28.3461V76.7067ZM35.0042 76.7065H33.04V87.0675H35.0071V81.7339C35.0071 81.1362 35.0789 80.619 35.2255 80.1822C35.3705 79.7454 35.5746 79.3847 35.8376 79.1002C36.1005 78.8158 36.4065 78.6074 36.7557 78.4767C37.1048 78.3459 37.4841 78.2798 37.8922 78.2798C38.1982 78.2798 38.4929 78.3272 38.7773 78.4221C39.0618 78.5183 39.3133 78.6706 39.5317 78.8818C39.7501 79.0931 39.9254 79.3704 40.0561 79.7123C40.1869 80.0558 40.253 80.4667 40.253 80.948V87.0689H42.22V80.4006C42.22 79.7152 42.118 79.1218 41.914 78.6189C41.7085 78.116 41.4355 77.7036 41.0935 77.3832C40.7501 77.0628 40.3507 76.8257 39.8909 76.6734C39.4311 76.5197 38.9541 76.4435 38.4584 76.4435C37.6566 76.4435 36.9497 76.616 36.3376 76.9579C35.7255 77.3013 35.2944 77.7496 35.0473 78.3028H35.0042V76.7065ZM45.1392 71.59H55.5232V74.7381H48.5488V77.8862H54.9973V81.0343H48.5488V87.0676H45.1377V71.59H45.1392ZM64.2224 87.0689H67.3691V76.4435H64.0901V81.7339C64.0901 82.0846 64.0672 82.4193 64.024 82.7397C63.981 83.0602 63.889 83.349 63.751 83.6033C63.6131 83.8591 63.4134 84.0617 63.1505 84.2154C62.889 84.3691 62.5455 84.4452 62.1232 84.4452C61.7007 84.4452 61.376 84.3576 61.1503 84.1823C60.9248 84.007 60.7567 83.7814 60.6475 83.5041C60.5382 83.2283 60.4722 82.9251 60.4506 82.5975C60.4291 82.2699 60.4175 81.9524 60.4175 81.6463V76.4435H57.1387V82.303C57.1387 83.017 57.1861 83.6808 57.2809 84.2929C57.3758 84.905 57.5655 85.4381 57.8499 85.8893C58.1344 86.3418 58.5353 86.6953 59.0526 86.9496C59.5699 87.204 60.2437 87.3319 61.0742 87.3319C61.4679 87.3319 61.8329 87.2801 62.1676 87.1781C62.5025 87.0761 62.8013 86.9454 63.0643 86.7844C63.3272 86.6249 63.5484 86.4424 63.7309 86.2384C63.9135 86.0344 64.0629 85.8303 64.1792 85.6263H64.2224V87.0689ZM69.563 76.4428H72.7097V77.8854H72.7528C72.8548 77.6814 72.9999 77.4773 73.1895 77.2733C73.3792 77.0693 73.6049 76.8868 73.8678 76.7273C74.1308 76.5664 74.4281 76.4356 74.7644 76.3336C75.0992 76.2316 75.4641 76.1799 75.8578 76.1799C76.6883 76.1799 77.3593 76.3077 77.8694 76.5621C78.3794 76.8178 78.7761 77.1713 79.0605 77.6225C79.345 78.0751 79.5375 78.6067 79.6395 79.2188C79.7416 79.8309 79.7933 80.4947 79.7933 81.2088V87.0682H76.5145V81.8654C76.5145 81.5594 76.5029 81.2418 76.4814 80.9142C76.4599 80.5866 76.3938 80.2834 76.2845 80.0076C76.1754 79.7303 76.0072 79.5047 75.7817 79.3294C75.556 79.1541 75.2313 79.0665 74.809 79.0665C74.3865 79.0665 74.0431 79.1426 73.7815 79.2964C73.5187 79.4501 73.3189 79.6541 73.181 79.9085C73.0416 80.1642 72.951 80.4516 72.908 80.772C72.8648 81.0924 72.8419 81.4272 72.8419 81.7778V87.0682H69.563V76.4428Z" clip-rule="evenodd" fill-rule="evenodd"></path>
</svg>
