<svg xmlns="http://www.w3.org/2000/svg" fill="none" viewBox="0 0 151 158" height="158" width="151">
  <path fill-opacity="0.84" fill="#43505F" d="M73.3901 67.372V75.8426C75.0092 74.2961 77.1603 72.8107 79.3956 74.2903C81.4626 75.6591 81.2297 78.9844 81.0444 81.6305C80.996 82.3223 80.9508 82.9676 80.9508 83.5195C81.3041 83.5721 81.6194 83.6182 81.9765 83.6704C82.2509 83.7105 82.55 83.7542 82.91 83.8073C81.6135 84.5892 78.2532 84.5253 76.8696 84.0776C77.1017 83.6523 77.4444 83.6418 77.7953 83.6311C78.0464 83.6234 78.3017 83.6156 78.5236 83.4555C78.5474 83.1966 78.5833 82.8821 78.6237 82.5274C78.9033 80.0744 79.402 75.6979 77.6777 74.4763C73.0952 73.4794 73.2739 79.0085 73.3803 82.3011C73.3946 82.7429 73.4075 83.1445 73.4075 83.4846C73.5825 83.5167 73.7523 83.5479 73.9263 83.58L73.9285 83.5804L73.9288 83.5804C74.3379 83.6558 74.7701 83.7354 75.3464 83.8392C74.1604 84.6997 70.5414 84.4758 69.2246 84.098C69.5567 83.6671 69.9199 83.6542 70.256 83.6423C70.464 83.635 70.6616 83.628 70.835 83.5224C71.1402 82.5079 71.2536 73.1566 71.0036 67.8778C70.8405 67.8545 70.6586 67.877 70.4746 67.8997C70.016 67.9562 69.5446 68.0144 69.3205 67.3691H73.3901V67.372ZM117.874 71.4043V71.4056C117.884 75.4363 117.894 79.4674 117.894 83.5001C118.159 83.5484 118.408 83.5933 118.648 83.6365C118.958 83.6924 119.253 83.7455 119.548 83.7995C118.802 84.2562 118.039 84.247 117.252 84.2376C116.836 84.2326 116.414 84.2275 115.984 84.2908C115.94 84.0758 115.899 83.8764 115.86 83.6848L115.855 83.6622L115.854 83.6579L115.852 83.6498L115.85 83.6384L115.849 83.6353C115.804 83.415 115.76 83.2044 115.717 82.9914C115.037 83.1297 114.537 83.4528 114.06 83.7609C113.233 84.2951 112.475 84.7845 110.973 84.1891C108.674 83.2792 107.9 81.1863 107.397 78.9713C108.278 75.5064 112.031 71.524 115.505 75.0384V68.2073C115.305 67.9882 115.013 67.9657 114.722 67.9434C114.331 67.9134 113.944 67.8837 113.795 67.373H117.865C117.868 68.7127 117.871 70.0524 117.874 71.3922V71.3934V71.3946V71.3958V71.397V71.3983V71.3995V71.4007V71.4019V71.4031V71.4043ZM111.702 74.3611C109.424 76.1255 108.863 84.878 113.359 83.9013C115.791 83.3728 115.659 80.4356 115.569 78.4287L115.56 78.2272C115.435 75.4192 114.641 74.3611 111.702 74.3611ZM9.78972 90.0437C9.38932 90.073 9.00892 90.1009 8.85838 90.626L8.85547 90.6289H14.6691C14.5289 90.1127 14.1474 90.083 13.7558 90.0526C13.4573 90.0294 13.1529 90.0058 12.9454 89.7656C12.9454 89.6742 12.9357 89.443 12.922 89.1193L12.922 89.1188L12.922 89.1188V89.1188C12.8521 87.4556 12.6796 83.3541 13.1954 83.2397C16.1865 87.0971 21.3607 82.2311 20.9653 78.5481C20.7677 76.7052 19.5584 74.9989 17.8666 74.1995C16.2727 73.4462 15.5019 73.9502 14.657 74.5025C14.126 74.8497 13.5658 75.2159 12.7535 75.3012C12.6692 74.8855 12.5878 74.4815 12.489 73.9844C12.0452 74.0603 11.6085 74.0544 11.1786 74.0486C10.406 74.0382 9.65543 74.0281 8.92523 74.4931C9.25101 74.5507 9.57567 74.6094 9.90267 74.6685L9.90297 74.6686L9.904 74.6688L9.90416 74.6688C10.1048 74.7051 10.3063 74.7415 10.5095 74.778V89.8673C10.2955 90.0066 10.0387 90.0254 9.78972 90.0437ZM16.7039 74.4001C9.84379 73.7954 12.7506 87.1058 17.6225 83.3647C18.4771 81.0073 19.6078 75.9087 16.7039 74.4001ZM103.04 67.373V83.4914C103.602 83.596 104.082 83.6841 104.691 83.7959L104.692 83.7963L104.9 83.8344C103.743 84.3809 99.982 84.3809 98.8047 83.8083C99.1519 83.7546 99.4449 83.7099 99.7102 83.6694L99.7103 83.6694C99.9912 83.6265 100.241 83.5884 100.491 83.5496C100.781 82.4246 100.88 72.7536 100.648 67.8905C100.476 67.8539 100.281 67.8781 100.084 67.9024C99.6382 67.9576 99.182 68.014 98.9704 67.373H103.04ZM27.7531 83.4943V67.373H27.7502H23.6807C23.8321 67.8955 24.2316 67.9158 24.6209 67.9356C24.8965 67.9496 25.1669 67.9634 25.3405 68.155V83.4885C25.1064 83.5507 24.8913 83.6086 24.6642 83.6696L24.6616 83.6703L24.6588 83.6711L24.6554 83.672L24.654 83.6723L24.6506 83.6733L24.6493 83.6736L24.6467 83.6743L24.6458 83.6746C24.3904 83.7432 24.119 83.8162 23.7882 83.9042C25.198 84.3955 28.5932 84.3489 29.5961 83.8257C29.2101 83.757 28.8757 83.6966 28.5442 83.6367L28.5426 83.6365L28.5422 83.6364C28.2851 83.5899 28.0296 83.5438 27.7531 83.4943ZM6.24179 67.3711C6.30337 68.3317 5.07732 68.3155 4.34428 68.3059H4.34428H4.34428H4.34427H4.34427H4.34427H4.34427H4.34427C4.21217 68.3042 4.09609 68.3027 4.00644 68.3071V89.963C4.73024 89.9979 5.39009 90.0298 6.1168 90.0676L6.13209 90.1374C6.1718 90.3188 6.20565 90.4734 6.24179 90.6257H3.33496V67.3711H6.24179ZM145.81 90.3472L145.787 90.5094L145.77 90.6257H145.773H148.68V67.3711H145.773C145.699 68.3302 146.942 68.3148 147.671 68.3057C147.801 68.3041 147.915 68.3027 148.002 68.3071V89.9572C147.241 90.0008 146.54 90.0415 145.848 90.0822L145.81 90.3472ZM32.5893 83.6511C34.7693 85.0405 36.4058 84.9156 38.3154 83.2182C39.6662 84.8576 41.0085 85.0425 42.5975 83.6365C41.9231 83.7092 41.4318 83.7615 40.9493 83.8109C40.0088 83.2357 40.134 81.503 40.2674 79.6582C40.4036 77.7738 40.5482 75.7724 39.5744 74.7678C38.0221 73.169 34.095 73.233 33.0311 75.448V77.1456C33.5563 77.4169 34.1105 77.5002 34.6938 77.3956C35.2232 76.9857 35.1519 76.4716 35.0793 75.9474C35.0247 75.5534 34.9693 75.1536 35.1676 74.7881C35.7132 74.2669 36.3813 74.3192 37.035 74.3703C37.1615 74.3802 37.2873 74.3901 37.4117 74.3957C38.3273 75.2649 38.4756 76.2793 37.9727 78.2444C37.4541 78.4727 36.872 78.6701 36.2833 78.8698C33.8885 79.6819 31.383 80.5316 32.5893 83.6511ZM38.2024 78.8693C38.0106 78.9483 37.8257 79.0228 37.6477 79.0945C35.591 79.9232 34.4584 80.3796 34.4584 83.0174L34.7159 83.1907L34.7177 83.1918L34.7193 83.1929L34.7205 83.1937L34.7212 83.1942C35.1022 83.4505 35.445 83.6811 35.7606 83.8923C36.1532 83.7885 36.5042 83.697 36.8142 83.6161L36.8147 83.6159C36.9819 83.5723 37.1373 83.5318 37.2809 83.4941C38.2722 82.4145 38.2414 81.2081 38.2094 79.9516C38.2003 79.5943 38.1911 79.233 38.2053 78.8693H38.2024ZM85.2754 79.1389C85.2754 72.177 96.3766 72.2584 96.3446 79.165C96.3126 86.0339 85.2754 86.1414 85.2754 79.1389ZM93.6616 80.4237C93.3041 83.3102 92.3622 84.0281 89.5542 83.8624C86.7898 81.9817 86.7637 72.7584 91.6559 74.4501C93.9 75.2263 93.9116 78.4005 93.6616 80.4237ZM65.652 83.3455L65.6493 83.348C66.0794 82.6176 66.2876 81.9453 66.274 81.3311C66.155 81.4862 66.0391 81.6416 65.9247 81.7951C64.8854 83.1888 63.9656 84.4225 61.8498 83.8281C59.6206 83.2026 59.6827 81.2678 59.7432 79.3804C59.753 79.075 59.7627 78.7709 59.7627 78.4737C60.8742 78.4393 61.9648 78.444 63.0402 78.4486H63.0402H63.0402H63.0403C64.2373 78.4537 65.4154 78.4587 66.5822 78.4097C67.2595 72.6978 59.7104 72.6542 57.5855 76.8284C55.1007 81.708 61.3967 87.2733 65.6493 83.348L65.6491 83.3484L65.652 83.3455ZM64.0794 77.7557C64.0794 75.1395 63.4399 73.628 60.5592 74.8198C60.5201 74.8896 60.481 74.9587 60.4421 75.0273L60.4417 75.0281L60.4415 75.0285C59.9292 75.9329 59.472 76.7401 59.8906 77.7557H64.0794ZM125.125 78.4193H131.959C133.36 72.2829 122.666 72.5533 122.436 79.0762C122.245 84.5352 131.744 86.9246 131.744 81.4772C131.624 81.6013 131.508 81.7215 131.397 81.8376C129.984 83.3099 129.203 84.123 126.692 83.8347C125.064 82.358 124.518 80.4831 125.125 78.4193ZM129.478 76.1141C129.522 76.7045 129.562 77.2487 129.294 77.7739H124.968L124.968 77.7736C125.596 75.2565 125.849 74.2421 128.645 74.4078L129.076 74.8693L129.445 75.2653C129.437 75.5598 129.458 75.8417 129.478 76.1139V76.114V76.1141ZM134.814 83.7699C135.312 83.6914 135.811 83.613 136.387 83.5228V74.8198C136.101 74.7474 135.811 74.6732 135.52 74.5987L135.517 74.5979C135.295 74.541 135.072 74.4839 134.849 74.4274L134.854 74.392C134.867 74.2968 134.88 74.2033 134.89 74.1076C136.134 73.9739 137.378 73.9855 138.683 74.1192C138.713 74.3219 138.741 74.5102 138.768 74.6916L138.77 74.7028C138.8 74.9076 138.829 75.1037 138.858 75.3023C139.452 75.257 139.951 74.8679 140.439 74.4877C141.295 73.8203 142.117 73.1804 143.352 74.4768C144.727 75.9186 143.262 78.2237 141.52 76.5784C141.533 76.4209 141.553 76.2669 141.572 76.1161L141.572 76.1159C141.648 75.5183 141.718 74.9711 141.337 74.4535C138.357 75.3051 138.577 78.9601 138.749 81.804C138.785 82.4158 138.82 82.9901 138.82 83.4909C139.483 83.5897 140.114 83.6827 141.082 83.8252C139.742 84.5519 136.233 84.5984 134.823 84.0868C134.82 83.9792 134.817 83.8746 134.812 83.767L134.814 83.7699ZM53.2374 82.3465C53.0977 82.6283 52.9575 82.9115 52.7303 83.158V83.1551C47.0503 87.2217 45.0621 76.3618 48.9718 74.3997C49.2279 74.4223 49.5009 74.394 49.7772 74.3653C50.4952 74.2907 51.2363 74.2137 51.7652 75.0218C51.7189 75.43 51.6736 75.8185 51.6281 76.2082C51.5936 76.5038 51.5591 76.8 51.524 77.106C51.8989 77.3966 52.2274 77.6495 52.5937 77.9286C52.9327 77.7375 53.2353 77.5683 53.5027 77.4187C53.6137 77.3566 53.7186 77.298 53.8175 77.2426C54.4889 71.394 45.1144 73.6381 44.5912 78.6262C44.0098 84.1841 53.0995 87.4281 54.0616 81.2715C53.6285 81.5568 53.4336 81.9503 53.2374 82.3465Z" clip-rule="evenodd" fill-rule="evenodd"></path>
</svg>
