<svg xmlns="http://www.w3.org/2000/svg" fill="none" viewBox="0 0 134 158" height="158" width="134">
<path fill-opacity="0.84" fill="#43505F" d="M0.85248 70.8923L5.0482 68.5013C5.18615 68.4553 5.2896 68.4553 5.42755 68.5013L15.2099 74.134C15.3478 74.18 15.3478 74.3754 15.2099 74.4214L11.0142 76.8124C10.9222 76.8584 10.7728 76.8584 10.6808 76.8124L0.85248 71.1797C0.714538 71.1337 0.714538 70.9383 0.85248 70.8923ZM12.0585 70.8939L16.2543 68.5029C16.3577 68.4569 16.4957 68.4569 16.5876 68.5488L20.8293 70.9859C20.9673 71.0318 20.9673 71.2273 20.8293 71.2732L16.6336 73.6643C16.5416 73.7103 16.3922 73.7103 16.3002 73.6643L12.0585 71.1813C11.9206 71.1353 11.9206 70.9399 12.0585 70.8939ZM11.3477 78.0889V82.9055C11.3477 83.0434 11.4856 83.1469 11.635 83.0434L15.8767 80.6064C15.9227 80.5604 15.9687 80.5144 15.9687 80.4685V75.514C15.9687 75.376 15.8308 75.2726 15.6813 75.376L11.5316 77.767C11.3936 77.859 11.3477 77.951 11.3477 78.0889ZM21.2668 72.1794L17.0711 74.5589C16.9792 74.6623 16.9217 74.7543 16.9332 74.8923V80.9043C16.9332 81.0423 16.8297 81.1917 16.7378 81.2377L11.4845 84.2495C11.335 84.2955 11.2891 84.3989 11.2891 84.5369V89.3649C11.2891 89.5028 11.4845 89.5488 11.5764 89.5028L21.3588 83.8701C21.5082 83.8241 21.5542 83.7207 21.5542 83.5827V72.3173C21.5542 72.1794 21.3588 72.1334 21.2668 72.1794ZM10.3932 78.0421V83.0081C10.3932 83.1001 10.3012 83.1461 10.1977 83.1001L5.04793 80.1458C4.95597 80.0998 4.76055 80.1458 4.76055 80.2837V86.1004C4.76055 86.2383 4.62261 86.3418 4.47317 86.2383L0.277446 83.8473C0.185485 83.8013 0.0820312 83.6519 0.0820312 83.5599V72.2485C0.0820312 72.1105 0.219973 72.0071 0.36941 72.1105L10.1977 77.7433C10.2897 77.8122 10.3932 77.9502 10.3932 78.0421ZM10.1501 84.2046L5.95442 81.7676C5.85096 81.7216 5.71302 81.8136 5.66704 81.963V86.7681C5.66704 86.86 5.7705 87.0095 5.86246 87.0554L10.0582 89.4924C10.2076 89.5959 10.3456 89.4924 10.3456 89.3545V84.492C10.3456 84.4 10.2421 84.2506 10.1501 84.2046ZM37.8193 75.8003C37.8193 77.8465 36.4399 79.042 34.7616 79.2374C34.6521 79.2462 34.5497 79.255 34.451 79.2634L34.4501 79.2635L34.4496 79.2635L34.4495 79.2635L34.4495 79.2635L34.4494 79.2635C34.0309 79.2994 33.6798 79.3294 33.1408 79.3294H31.474V83.5712H29.2324V72.2598H33.1408C33.8075 72.2598 34.2328 72.2598 34.7616 72.3517C36.4858 72.5586 37.8193 73.7082 37.8193 75.8003ZM35.4398 75.8003C35.4398 74.7543 34.865 74.2255 34.1064 74.1335C33.865 74.0875 33.5316 74.0875 33.1063 74.0875H31.4855V77.5246H33.1063C33.5316 77.5246 33.865 77.5246 34.1064 77.4787C34.911 77.3292 35.4398 76.8579 35.4398 75.8003ZM43.9827 76.5244V74.7081C43.7872 74.6621 43.6033 74.6621 43.3159 74.6621C42.8331 74.6621 42.2584 74.8575 41.8331 75.2369L41.1664 76.4324V74.8575H38.9248V83.5365H41.1664V79.5706C41.1664 77.2371 42.1205 76.3749 43.9827 76.5244ZM53.3842 79.1904C53.3842 81.8113 51.7634 83.7655 48.9011 83.7655C46.0388 83.7655 44.418 81.8113 44.418 79.1904C44.418 76.5694 46.0388 74.6152 48.9011 74.6152C51.7634 74.6152 53.3842 76.5694 53.3842 79.1904ZM51.0392 79.1904C51.0392 77.3281 50.223 76.1786 48.8896 76.1786C47.5561 76.1786 46.7515 77.2822 46.7515 79.1904C46.7515 81.0526 47.5676 82.2022 48.9011 82.2022C50.2345 82.1447 51.0392 81.0526 51.0392 79.1904ZM57.4322 81.192V80.4333H57.3862V76.4214H59.2024V74.9385H57.3747V72.0762H55.1332V74.9385H53.8457V76.4099H55.1332V80.7092C55.1332 81.192 55.1332 81.5713 55.1791 81.9507C55.2826 83.1462 55.9033 83.721 57.5701 83.721C58.0529 83.721 58.5242 83.721 59.053 83.629V82.1461C57.8115 82.2381 57.4782 82.0541 57.4322 81.192ZM68.7885 79.1904C68.7885 81.8113 67.1677 83.7655 64.3054 83.7655C61.4431 83.7655 59.8223 81.8113 59.8223 79.1904C59.8223 76.5694 61.4431 74.6152 64.3054 74.6152C67.1677 74.6152 68.7885 76.5694 68.7885 79.1904ZM66.5009 79.1904C66.5009 77.3281 65.6848 76.1786 64.3513 76.1786C63.0179 76.1786 62.2018 77.2707 62.2018 79.1904C62.2018 81.0526 63.0179 82.2022 64.3513 82.2022C65.6388 82.1447 66.5009 81.0526 66.5009 79.1904ZM75.7074 77.9986H77.903C77.7651 76.0444 76.2822 74.6074 73.9487 74.6534C71.5577 74.6534 69.6035 76.3317 69.6035 79.286C69.6035 82.2863 71.3623 83.7692 73.7533 83.7692C75.9488 83.7692 77.5237 82.6772 77.903 80.5275H75.6615C75.4201 81.6196 74.7533 82.1944 73.8912 82.1944C72.7532 82.1944 71.937 81.2862 71.937 79.1366C71.937 77.1364 72.7417 76.2283 73.8912 76.2283C74.8453 76.2283 75.512 76.7571 75.7074 77.9986ZM87.6859 79.1904C87.6859 81.8113 86.0651 83.7655 83.2028 83.7655C80.3405 83.7655 78.7197 81.8113 78.7197 79.1904C78.7197 76.5694 80.3405 74.6152 83.2028 74.6152C86.0651 74.6152 87.6859 76.5694 87.6859 79.1904ZM85.3524 79.1904C85.3524 77.3281 84.5363 76.1786 83.2028 76.1786C81.8694 76.1786 81.0532 77.2707 81.0532 79.1904C81.0532 81.0526 81.8694 82.2022 83.2028 82.2022C84.5363 82.1447 85.3524 81.0526 85.3524 79.1904ZM88.6865 72.0449V83.5403H90.9281V72.0449H88.6865ZM104.861 83.5403H96.7451V72.0449H98.9867V81.678H104.861V83.5403ZM110.494 83.1571L110.919 82.249L111.103 83.4905H113.299C113.207 82.5364 113.161 81.9616 113.161 81.2949V78.467C113.161 77.9957 113.161 77.5589 113.115 77.1336C112.977 75.6047 112.069 74.5586 109.632 74.5586C107.574 74.5586 105.954 75.6621 105.908 77.6164H108.103C108.161 76.6622 108.632 76.1335 109.54 76.1335C110.391 76.1335 110.827 76.5588 110.873 77.1795C110.919 77.4669 110.919 77.7543 110.919 77.9957V78.1911H110.345C107.195 78.1911 105.574 79.2947 105.574 81.2029C105.574 82.8697 106.862 83.7319 108.345 83.7319C109.161 83.7319 109.873 83.5824 110.494 83.1571ZM110.919 79.628V80.3408C110.919 81.5248 110.161 82.1455 109.241 82.2145C108.437 82.2145 107.908 81.8237 107.908 81.065C107.908 79.9154 109.103 79.4901 110.919 79.628ZM123.85 79.0395C123.85 82.1892 121.942 83.7641 119.7 83.7641C118.988 83.7641 118.125 83.5687 117.654 83.2813L117.079 82.3732V83.5227H114.838V72.0273H117.079V76.1772L117.746 75.2231C118.229 74.8437 119.126 74.6023 119.988 74.6023C122.425 74.6023 123.85 76.4646 123.85 79.0395ZM121.517 79.1889C121.517 77.4187 120.654 76.2346 119.321 76.2346C118.08 76.2346 117.079 76.9933 117.079 79.097V79.5223C117.079 81.4765 118.229 82.1892 119.229 82.1892C120.562 82.1433 121.517 81.1891 121.517 79.1889ZM129.528 77.3751H131.769C131.585 75.8003 130.39 74.6047 128.344 74.5588C126.286 74.5588 124.907 75.5589 124.907 77.2257C124.907 78.7546 126.01 79.4213 127.631 79.8466C129.102 80.2375 129.677 80.6168 129.677 81.2835C129.677 81.9503 129.102 82.2377 128.39 82.2377C127.585 82.2377 126.964 81.8123 126.769 80.8582H124.527C124.769 82.8124 126.24 83.7206 128.344 83.7206C130.344 83.7206 131.919 82.9159 131.919 81.1456C131.919 79.5707 130.873 78.858 129.102 78.3752C127.677 78.0418 127.148 77.7085 127.148 77.0418C127.148 76.513 127.528 76.1336 128.194 76.1336C128.953 76.1336 129.39 76.5589 129.528 77.3751Z" clip-rule="evenodd" fill-rule="evenodd"></path>
</svg>
