<svg xmlns="http://www.w3.org/2000/svg" fill="none" viewBox="0 0 116 158" height="158" width="116">
<path fill-opacity="0.84" fill="#43505F" d="M2.54326 74.7363V74.7343V65.7104C2.54326 65.6683 2.54288 65.6262 2.5425 65.5841C2.54151 65.4748 2.54052 65.3657 2.54622 65.257C2.60148 64.1817 3.24488 63.49 4.29385 63.4648C5.4238 63.4379 6.55374 63.4475 7.68368 63.4572C7.86817 63.4588 8.05265 63.4603 8.23713 63.4618C8.46311 63.4638 8.69698 63.5092 8.91309 63.5779C9.56142 63.7849 9.99167 64.3927 9.99463 65.0985C9.99732 65.6942 9.99695 66.2901 9.99658 66.8861V66.8861V66.8861V66.8861V66.8861V66.8861V66.8861V66.8861C9.99614 67.6013 9.9957 68.3165 10.0005 69.0314C10.0025 69.2798 10.0321 69.5342 10.0913 69.7755C10.2581 70.4571 10.7969 70.8943 11.4877 70.9004C12.1711 70.9057 12.8543 70.9054 13.5374 70.9051H13.5376C14.1525 70.9049 14.7674 70.9046 15.3826 70.9084C15.6095 70.9095 15.8414 70.9377 16.0605 70.9953C16.8342 71.1992 17.2881 71.7899 17.2921 72.6007C17.2953 73.2536 17.2946 73.9065 17.2939 74.5593C17.2931 75.2847 17.2923 76.0101 17.297 76.7355C17.3019 77.513 17.744 78.1148 18.4387 78.3117C18.5779 78.3511 18.7298 78.3612 18.8749 78.3612C20.2061 78.3652 21.5373 78.3683 22.8685 78.3612C23.7852 78.3561 24.4118 77.717 24.4178 76.7759C24.4191 76.5507 24.4208 76.3255 24.4224 76.1003V76.1V76.0996V76.0993V76.099V76.0987V76.0983V76.0983V76.0982V76.0982V76.0981V76.0981V76.098V76.098C24.4304 75.0131 24.4383 73.9277 24.4138 72.8431C24.3872 71.6264 25.227 70.8761 26.3144 70.8983C27.108 70.9148 27.9021 70.9111 28.696 70.9073H28.696C29.1183 70.9053 29.5405 70.9034 29.9626 70.9044C31.2149 70.9074 31.8849 71.589 31.8859 72.8542C31.8862 73.256 31.8838 73.6579 31.8814 74.0598C31.8761 74.9355 31.8708 75.8113 31.8938 76.6861C31.9214 77.7402 31.1142 78.5763 30.0722 78.547C29.1308 78.5203 28.1884 78.5268 27.2461 78.5334H27.2461H27.2461H27.2461H27.246H27.246H27.246H27.246H27.2459H27.2459H27.2458H27.2457H27.2457H27.2456H27.2456C26.9059 78.5357 26.5662 78.5381 26.2266 78.5389C25.2191 78.5409 24.5964 79.17 24.5914 80.1999C24.5879 80.9862 24.5886 81.773 24.5893 82.5596V82.5597V82.5597V82.5597V82.5598V82.5598V82.5598V82.5599C24.5898 83.0842 24.5903 83.6086 24.5895 84.1328C24.5875 85.2788 23.9066 85.9866 22.7846 85.9947C22.5229 85.9965 22.2612 85.9992 21.9995 86.0018H21.9994H21.9993H21.9993H21.9992H21.9991H21.999H21.999H21.9989H21.9989H21.9988H21.9988H21.9987H21.9987H21.9986C20.9786 86.0122 19.9583 86.0225 18.94 85.9856C17.9937 85.9513 17.2713 86.7287 17.2891 87.7011C17.3058 88.6529 17.3017 89.6052 17.2975 90.5577C17.296 90.8996 17.2945 91.2415 17.294 91.5835C17.293 92.7012 16.6891 93.4 15.5898 93.4343C14.2438 93.4767 12.8939 93.4747 11.5479 93.4343C10.4841 93.402 9.84365 92.674 9.83279 91.5643C9.83086 91.3666 9.82863 91.1689 9.8264 90.9711L9.82639 90.9705V90.9705V90.9704V90.9704V90.9704V90.9704V90.9704V90.9704C9.81386 89.8573 9.80131 88.7433 9.84068 87.6314C9.8772 86.5955 9.02657 85.9573 8.24897 85.9846C7.25965 86.0192 6.26862 86.0104 5.27805 86.0016H5.27776H5.27748H5.27719H5.27691H5.27662H5.27633H5.27605C4.96898 85.9989 4.66195 85.9961 4.35504 85.9947C3.55375 85.9906 2.91134 85.5827 2.68733 84.9001C2.58964 84.6043 2.55214 84.2761 2.54918 83.9621C2.53905 82.8655 2.54059 81.7684 2.54214 80.6711C2.5427 80.272 2.54326 79.873 2.54326 79.4739V74.7363ZM17.1273 82.1759H17.1292V81.1672C17.1292 81.0603 17.1271 80.9534 17.125 80.8464V80.8464V80.8463V80.8462V80.8462V80.8461V80.8461V80.846C17.1205 80.6166 17.116 80.3874 17.1322 80.1595C17.2032 79.1882 16.3131 78.5046 15.5119 78.5298C14.6695 78.5564 13.8267 78.5511 12.9838 78.5457C12.545 78.543 12.1061 78.5402 11.6673 78.5419C10.6893 78.545 10.0311 79.1498 10.0075 80.1454C9.97489 81.5055 9.97588 82.8686 10.0075 84.2287C10.0292 85.1394 10.6518 85.8038 11.4798 85.818C12.8761 85.8432 14.2734 85.8432 15.6697 85.818C16.5066 85.8028 17.1115 85.1435 17.1253 84.2933C17.1328 83.8065 17.1309 83.3198 17.129 82.833C17.1281 82.614 17.1273 82.3949 17.1273 82.1759ZM92.5402 84.2603H94.1871V86.0829C93.4109 86.1191 92.6382 86.1139 91.8568 86.1086H91.8567C91.4173 86.1057 90.9752 86.1027 90.5281 86.1071V84.4562C90.4561 84.5456 90.3901 84.6297 90.3275 84.7097L90.3256 84.7121L90.325 84.7128L90.3242 84.7139C90.1949 84.8789 90.0797 85.026 89.9547 85.164C88.962 86.2606 87.7019 86.5514 86.3144 86.3535C84.7582 86.1313 83.7112 85.1802 83.1339 83.7353C82.2458 81.5119 82.2577 79.2471 83.129 77.0206C83.653 75.6817 84.6171 74.7437 86.0292 74.467C87.8341 74.1126 89.3824 74.57 90.4945 76.3088V74.6538C91.1853 74.6165 91.8287 74.6215 92.5402 74.6538V84.2603ZM84.7395 80.3709H84.7444C84.7444 80.5947 84.7441 80.8185 84.7438 81.0423V81.0462C84.7431 81.4926 84.7424 81.9389 84.7444 82.3853C84.7484 83.0325 85.0355 83.5434 85.5003 83.9584C86.3174 84.6864 87.2963 84.7601 88.2831 84.5521C89.4821 84.2987 90.2725 83.2869 90.4097 82.0309C90.531 80.9252 90.5429 79.8236 90.4067 78.72C90.3268 78.0697 90.0692 77.5063 89.6656 76.9984C88.8377 75.9564 87.022 75.8877 86.0322 76.4198C85.2398 76.8459 84.7454 77.4982 84.7395 78.4585C84.7368 78.8836 84.7377 79.3083 84.7386 79.7331V79.7332V79.7333V79.7334V79.7336V79.7337V79.7338V79.7339C84.739 79.9465 84.7395 80.1591 84.7395 80.3719V80.3709ZM63.5371 84.263H65.1308C65.2235 84.9132 65.2127 85.4857 65.1485 86.0734H61.7293V84.1145C61.6414 84.2484 61.5626 84.3769 61.4874 84.4996C61.3347 84.7489 61.1966 84.9741 61.0267 85.1717C60.0961 86.2551 58.8764 86.5187 57.5393 86.3622C56.9482 86.2925 56.3887 86.0986 55.8963 85.7372C54.8177 84.9445 54.2818 83.5339 54.567 82.2344C54.8917 80.7532 55.8055 79.8141 57.2403 79.5789C57.8817 79.4743 58.5295 79.4119 59.1775 79.3494L59.1777 79.3494L59.1778 79.3494L59.1779 79.3494L59.1781 79.3494L59.1782 79.3494L59.1783 79.3493C59.4433 79.3238 59.7082 79.2983 59.9727 79.2699C60.2763 79.2368 60.5804 79.2064 60.8996 79.1745L60.9003 79.1745L60.9031 79.1742L60.9061 79.1739C61.0621 79.1583 61.2218 79.1423 61.3868 79.1255C61.3912 79.0396 61.3964 78.9539 61.4016 78.8684C61.437 78.2826 61.4718 77.7068 61.2497 77.1465C61.0099 76.5426 60.5273 76.2115 59.9264 76.1579C59.3787 76.1095 58.8073 76.1266 58.2695 76.2327C57.5699 76.371 57.109 76.8284 57.0183 77.5998C57.005 77.7094 56.9754 77.8168 56.9436 77.9319L56.9436 77.9319C56.928 77.9886 56.9118 78.0471 56.8969 78.1087H54.9065C54.91 78.0293 54.9097 77.9501 54.9095 77.8714V77.8713V77.8712V77.8711V77.871V77.8709V77.8708C54.9089 77.7026 54.9084 77.5374 54.944 77.3807C55.2193 76.1872 55.9397 75.3441 57.0143 74.8473C58.4787 74.1688 59.9787 74.1759 61.45 74.8221C62.7368 75.3875 63.397 76.4518 63.4453 77.8613C63.4915 79.2055 63.505 80.5513 63.5184 81.8967C63.5239 82.4473 63.5294 82.9978 63.5371 83.5481C63.539 83.6747 63.5385 83.8013 63.5378 83.9573V83.9578C63.5375 84.0478 63.5371 84.1477 63.5371 84.263ZM61.2212 80.8569L61.2213 80.8569C61.2735 80.858 61.328 80.8592 61.3859 80.8592V80.8602C61.4747 81.8679 61.3316 82.7443 60.8076 83.5259C60.3428 84.2175 59.7063 84.6255 58.8715 84.6214C58.4491 84.6194 58.0149 84.6022 57.6093 84.4972C57.0084 84.3427 56.7489 83.956 56.7321 83.3219C56.7193 82.8524 56.7212 82.3819 56.742 81.9133C56.7617 81.4751 56.89 81.3116 57.3133 81.2267C57.5952 81.1701 57.8829 81.1451 58.1706 81.1201L58.1706 81.1201L58.1707 81.1201L58.1707 81.12L58.1708 81.12L58.1708 81.12L58.1709 81.12C58.2578 81.1125 58.3446 81.1049 58.4314 81.0965C59.2613 81.0157 60.0922 80.9359 60.9221 80.8612C61.0175 80.8524 61.1144 80.8545 61.2212 80.8569ZM98.8638 86.075H96.8408V74.6561C97.4498 74.607 98.0528 74.6241 98.6908 74.6422L98.8243 74.646V76.3221C98.895 76.2243 98.9574 76.1363 99.0149 76.0551C99.1238 75.9016 99.2153 75.7724 99.3128 75.6476C100.138 74.5874 101.256 74.2774 102.515 74.3713C102.887 74.3986 103.266 74.4733 103.618 74.5965C104.974 75.0701 105.586 76.1495 105.754 77.5227C105.836 78.1968 105.84 78.8837 105.845 79.5652L105.845 79.6825C105.854 81.0508 105.852 82.4192 105.851 83.7872C105.85 84.3342 105.849 84.881 105.849 85.4278V86.0619H103.749L103.747 86.0164L103.744 85.964L103.739 85.8758L103.739 85.8743C103.731 85.7364 103.723 85.6018 103.723 85.4672C103.722 84.8209 103.723 84.1746 103.724 83.5284C103.726 81.8563 103.728 80.1843 103.707 78.5122C103.701 78.0386 103.566 77.556 103.428 77.0976C103.289 76.6371 102.933 76.3463 102.479 76.2211C101.27 75.8879 100.14 76.208 99.4351 77.3429C99.0148 78.0195 98.8746 78.7727 98.8687 79.5512C98.8581 80.9554 98.8601 82.3591 98.8622 83.763V83.7631V83.7632V83.7633V83.7634V83.7635C98.863 84.325 98.8638 84.8864 98.8638 85.448V86.073V86.075ZM110.043 74.6257H108.296L108.295 74.6247C108.148 75.1447 108.156 76.0211 108.31 76.4724L108.739 76.4858L108.741 76.4858C109.162 76.4989 109.597 76.5124 110.048 76.526V79.7692C110.048 80.0982 110.048 80.4271 110.047 80.756V80.7561V80.7562V80.7563V80.7564C110.046 81.469 110.044 82.1814 110.049 82.8943C110.051 83.2279 110.049 83.5616 110.047 83.8962V83.8973V83.8984V83.8995V83.9006V83.901C110.042 84.6189 110.037 85.3402 110.076 86.0698H114.678V84.324C114.242 84.2347 113.808 84.2444 113.377 84.2542C112.984 84.263 112.594 84.2718 112.205 84.2059V76.532C112.575 76.4838 112.942 76.4916 113.309 76.4994C113.772 76.5092 114.235 76.5191 114.702 76.4159C114.704 76.2918 114.707 76.1697 114.711 76.0486C114.723 75.576 114.736 75.1181 114.67 74.6166H112.17C112.17 74.385 112.17 74.162 112.17 73.9447C112.171 73.5263 112.172 73.1289 112.17 72.7314C112.168 72.2785 112.164 71.8255 112.16 71.3819L112.156 70.9129C111.573 70.7594 110.456 70.7847 110.043 70.9695V74.6257ZM42.3866 74.6523H44.6405C45.0833 76.0733 45.5259 77.494 45.9685 78.9147L45.9805 78.9532L46.0107 79.0501L46.0363 79.1324C46.4844 80.5709 46.9325 82.0093 47.3808 83.448L47.4637 83.4631L50.2524 74.6634H52.3997C51.441 77.442 50.4761 80.1841 49.511 82.9268L49.5109 82.927L49.5107 82.9276L49.5078 82.9358L49.5042 82.946L49.5028 82.9503C49.1365 83.9912 48.7702 85.0322 48.4042 86.0753H46.4019C45.2754 82.87 44.1425 79.6472 42.9916 76.3732L42.9412 76.23L42.3866 74.6523ZM68.3456 86.0836H70.3695V86.0826C70.3746 86.0028 70.3808 85.9262 70.3868 85.8519L70.3868 85.8516L70.3869 85.8514C70.3993 85.6976 70.4109 85.5534 70.4109 85.4091C70.4126 83.8769 70.4127 82.345 70.4128 80.8131C70.4129 79.589 70.413 78.3649 70.4139 77.1405C70.4139 77.0107 70.4236 76.8808 70.4348 76.7318L70.4349 76.7313C70.4403 76.6581 70.4462 76.5801 70.4514 76.4953H73.7552V74.6677H68.3456V86.0836ZM78.7277 86.1094H78.7263C78.3455 86.1098 77.9724 86.1102 77.5994 86.108C77.5218 86.108 77.4446 86.0994 77.3701 86.091C77.3368 86.0873 77.3039 86.0836 77.2718 86.0808C77.1603 85.6718 77.1475 75.199 77.26 74.6699H79.1842C79.3194 75.1001 79.3372 85.5557 79.1931 86.109C79.0364 86.109 78.8814 86.1092 78.7277 86.1094ZM78.2436 73.0835C78.9955 73.0784 79.632 72.4019 79.6291 71.6123C79.6261 70.8156 78.9906 70.1785 78.211 70.1896C77.4433 70.1997 76.7959 70.8722 76.8078 71.6476C76.8186 72.417 77.4906 73.0895 78.2436 73.0835Z" clip-rule="evenodd" fill-rule="evenodd"></path>
</svg>
