<svg
  width="80"
  height="158"
  viewBox="0 0 80 158"
  fill="none"
  xmlns="http://www.w3.org/2000/svg"
>
  <path
    fill-rule="evenodd"
    clip-rule="evenodd"
    d="M55.5892 76.5952V61.9371L63.4131 61.937V64.4725H58.2823V68.0578H63.1969V70.5933H58.2823V74.0597H63.4131V76.5952H55.5892ZM39.9417 61.9371H42.6584V71.2081C42.6584 71.3923 42.6715 71.6553 42.698 71.9972C42.7245 72.3391 42.8169 72.681 42.9756 73.0228C43.1342 73.3647 43.3853 73.6639 43.7291 73.9203C44.0728 74.1768 44.5619 74.3049 45.1965 74.3049C45.831 74.3049 46.3201 74.1768 46.6639 73.9203C47.0075 73.6639 47.2587 73.3647 47.4174 73.0228C47.5761 72.681 47.6685 72.3391 47.695 71.9972C47.7214 71.6553 47.7346 71.3923 47.7346 71.2081V61.9373H50.4513V71.2081C50.4513 71.7998 50.3951 72.4015 50.2827 73.013C50.1702 73.6244 49.9423 74.1735 49.5986 74.66C49.1756 75.2518 48.5906 75.7614 47.8437 76.1887C47.0968 76.6161 46.221 76.8298 45.2163 76.8298C44.661 76.8298 44.1488 76.7607 43.6795 76.6226C43.2102 76.4845 42.7938 76.3103 42.4303 76.0999C42.0667 75.8894 41.7528 75.6626 41.4884 75.4193C41.2239 75.1761 41.0125 74.9492 40.8538 74.7388C40.6158 74.4233 40.4044 73.9827 40.2193 73.4173C40.0343 72.8517 39.9417 72.1154 39.9417 71.208V61.9371ZM28.7316 76.5952V61.9371L31.4199 61.937V74.0597H35.8547V76.5952H28.7316ZM24.4111 96.6474L30.5128 81.9893H32.6328L38.7742 96.6474H35.7827L34.2175 92.864H28.9677L27.4026 96.6474H24.4111ZM31.5726 85.859L29.8994 90.3151H33.2856L31.6124 85.859H31.5726ZM15.4197 76.595V61.937L18.2907 61.9367C18.697 61.9367 19.1002 61.9433 19.5 61.9564C19.8998 61.9698 20.2899 62.0094 20.67 62.0754C21.0501 62.1415 21.4172 62.2537 21.7712 62.4121C22.1251 62.5707 22.4595 62.7886 22.7741 63.0659C23.1411 63.396 23.4393 63.8087 23.6688 64.3038C23.8981 64.7992 24.0128 65.2976 24.0128 65.7994C24.0128 66.2616 23.9506 66.6546 23.8261 66.9781C23.7016 67.3015 23.5508 67.5724 23.3738 67.7902C23.1968 68.0081 23.0166 68.1798 22.8331 68.3052C22.6496 68.4306 22.4988 68.5265 22.3808 68.5925C22.6168 68.6849 22.8822 68.8104 23.1772 68.9688C23.4721 69.1274 23.744 69.3453 23.9932 69.6226C24.2423 69.8999 24.452 70.2498 24.6224 70.6724C24.7929 71.095 24.8781 71.6166 24.8781 72.2372C24.8781 72.6731 24.8255 73.0726 24.7207 73.4357C24.6159 73.7988 24.4783 74.1222 24.3078 74.4062C24.1375 74.6901 23.9441 74.941 23.7277 75.1589C23.5114 75.3768 23.2919 75.565 23.0691 75.7234C22.7937 75.9214 22.489 76.0766 22.1547 76.1889C21.8205 76.3012 21.4796 76.3869 21.1322 76.4464C20.7849 76.5059 20.4538 76.5455 20.1392 76.5653C19.8246 76.5851 19.5493 76.595 19.3132 76.595H15.4197ZM18.1054 64.5167V67.6829H18.9759C19.1305 67.6829 19.3368 67.6762 19.5948 67.6631C19.8527 67.6499 20.1042 67.5939 20.3491 67.4949C20.5941 67.396 20.8069 67.2377 20.9874 67.0201C21.1679 66.8023 21.2582 66.4956 21.2582 66.0998C21.2582 65.6644 21.1066 65.2917 20.8036 64.9817C20.5006 64.6717 19.9687 64.5167 19.2078 64.5167H18.1054ZM18.1054 70.1455V74.0152H19.4677C19.5993 74.0152 19.8165 74.0055 20.1192 73.9856C20.4221 73.9658 20.7248 73.8968 21.0275 73.7783C21.3302 73.6599 21.6001 73.469 21.837 73.2057C22.0739 72.9423 22.1924 72.5738 22.1924 72.1C22.1924 71.9552 22.166 71.771 22.1134 71.5472C22.0608 71.3235 21.939 71.1097 21.7481 70.9056C21.5572 70.7015 21.2875 70.5239 20.9386 70.3725C20.5898 70.2212 20.1192 70.1455 19.5269 70.1455H18.1054ZM18.326 96.6474V91.2398L13.5512 81.9893H16.4986L19.6621 88.7241L22.8453 81.9893H25.8124L21.0179 91.2398V96.6474H18.326ZM53.8376 81.9896V96.6474H57.1992C57.6055 96.6474 58.0248 96.6343 58.4573 96.6078C58.8898 96.5813 59.3158 96.5319 59.735 96.4593C60.1545 96.3867 60.5574 96.2876 60.944 96.1621C61.3305 96.0367 61.6943 95.8816 62.035 95.6967C62.5591 95.4062 63.0379 95.0365 63.4702 94.5874C63.9026 94.1384 64.2694 93.6367 64.5708 93.0821C64.8727 92.5274 65.105 91.9332 65.2688 91.2994C65.4325 90.6655 65.5147 90.0184 65.5147 89.3582C65.5147 88.7904 65.4557 88.2291 65.3378 87.6745C65.2193 87.1198 65.0526 86.5981 64.8364 86.1096C64.6202 85.621 64.3647 85.1721 64.0693 84.7627C63.7745 84.3533 63.4571 83.9967 63.1159 83.693C62.9063 83.5082 62.6442 83.3166 62.3298 83.1186C62.0153 82.9206 61.6223 82.7357 61.15 82.564C60.6785 82.3922 60.1148 82.2536 59.4596 82.148C58.8043 82.0425 58.031 81.9896 57.1399 81.9896H53.8376ZM56.5233 84.5691V94.1848L57.0949 94.185C57.4627 94.185 57.8009 94.1751 58.1097 94.1553C58.4184 94.1353 58.7106 94.1022 58.9865 94.0559C59.2623 94.0096 59.535 93.9401 59.8043 93.8473C60.0737 93.7546 60.3527 93.6287 60.6418 93.4698C60.9964 93.271 61.312 93.0228 61.5877 92.7247C61.8635 92.4268 62.0933 92.099 62.2774 91.7413C62.4614 91.3837 62.5995 91.0061 62.6913 90.6088C62.783 90.2115 62.8294 89.8142 62.8294 89.4169C62.8294 88.7016 62.6877 88.0262 62.4054 87.3904C62.1231 86.7547 61.7455 86.2249 61.2727 85.801C60.7076 85.2845 60.0737 84.9501 59.3708 84.7977C58.668 84.6453 57.8897 84.5691 57.0357 84.5691H56.5233ZM40.7591 96.6474V81.9893L45.2563 81.9892C46.1017 81.9892 46.8016 82.0685 47.3563 82.2269C47.911 82.3852 48.3996 82.6363 48.8224 82.9795C49.0336 83.1513 49.2417 83.3527 49.4464 83.5837C49.6512 83.8148 49.8361 84.0789 50.0012 84.3761C50.1663 84.6732 50.2983 84.9999 50.3974 85.3565C50.4965 85.7131 50.546 86.1027 50.546 86.5253C50.546 86.7629 50.523 87.0335 50.4767 87.3374C50.4306 87.6412 50.3513 87.9514 50.239 88.2684C50.1268 88.5854 49.9815 88.8957 49.8032 89.1995C49.6249 89.5032 49.4037 89.7806 49.1395 90.0314C48.7036 90.454 48.2809 90.738 47.8715 90.8832C47.4621 91.0284 47.0724 91.1473 46.7026 91.2398L50.6848 96.6474H47.396L43.5129 91.0418H43.4733V96.6474H40.7591ZM43.4448 84.5691V89.0253H45.173C45.7229 89.0253 46.1681 88.9431 46.5084 88.7788C46.8489 88.6145 47.114 88.4174 47.3039 88.1873C47.4937 87.9572 47.618 87.7139 47.677 87.4577C47.736 87.2014 47.7655 86.9746 47.7655 86.7775C47.7655 86.5803 47.7294 86.3535 47.6574 86.0972C47.5854 85.8409 47.4511 85.5978 47.2548 85.3676C47.0583 85.1375 46.7932 84.947 46.4594 84.7958C46.1253 84.6447 45.6966 84.5691 45.173 84.5691H43.4448ZM78.7101 40.2891H1.29004V117.709H78.7101V40.2891Z"
    fill="#43505F"
    fill-opacity="0.84"
  />
</svg>
