<svg
  width="158"
  height="158"
  viewBox="0 0 158 158"
  fill="none"
  xmlns="http://www.w3.org/2000/svg"
>
  <g clip-path="url(#clip0_6073_1059)">
    <path
      fill-rule="evenodd"
      clip-rule="evenodd"
      d="M40.0987 72.3817C40.0987 68.4142 42.5132 66.0176 46.7455 66.0176C50.6469 66.0176 52.6076 68.0636 52.9793 71.0801H50.1098C49.8213 69.2819 48.7481 68.2496 46.6838 68.2496C44.1655 68.2496 42.9065 69.6335 42.9065 72.3621C42.9065 75.0907 44.3104 76.4746 46.6838 76.4746C48.8302 76.4746 49.924 75.4002 50.193 73.6226H53.083C52.7111 76.743 50.4825 78.7057 46.6633 78.7057C42.5141 78.7057 40.0987 76.2249 40.0987 72.3817ZM66.9936 72.32C66.9936 76.2464 64.5165 78.7057 60.4711 78.7057C56.6527 78.7057 53.9486 76.4942 53.9486 72.4033C53.9486 68.3123 56.4258 66.0176 60.4711 66.0176C64.2895 66.0176 66.9936 68.2291 66.9936 72.32ZM64.1867 72.4023C64.1867 69.5503 62.7007 68.2486 60.4711 68.2486C58.1183 68.2486 56.7554 69.5503 56.7554 72.319C56.7554 75.0878 58.2416 76.4727 60.4711 76.4727C62.824 76.4727 64.1867 75.1711 64.1867 72.4023ZM71.2662 66.2242H68.5004V78.5H71.2662V70.1722C71.9892 68.7873 72.9792 68.1468 74.569 68.1468C76.5502 68.1468 77.5618 69.0567 77.5618 71.0399V78.4991H80.3275V70.6462C80.3275 67.7119 78.718 66.0176 75.8693 66.0176C73.3511 66.0176 71.9677 67.3202 71.2662 69.4895V66.2242ZM81.4842 74.7393H84.3743C84.6013 75.9586 85.5512 76.5375 87.6566 76.5375C89.7619 76.5375 90.567 75.8764 90.567 74.9881C90.567 74.327 90.2579 73.8314 89.081 73.6864L85.5307 73.2731C82.8266 72.9636 81.815 71.806 81.815 69.8844C81.815 67.6945 83.4048 66.0207 87.3259 66.0207C91.2469 66.0207 92.7545 67.6328 93.1059 69.9676H90.2364C90.071 68.8932 89.3491 68.191 87.2438 68.191C85.1384 68.191 84.478 68.8521 84.478 69.7199C84.478 70.4427 84.8703 70.8765 85.9641 71.0009L89.6592 71.4348C92.3427 71.7443 93.23 73.0263 93.23 74.8852C93.23 77.0752 91.558 78.7078 87.5949 78.7078C83.6317 78.7078 81.7935 77.1986 81.4842 74.7393ZM94.2801 72.4033C94.2801 75.9986 96.5095 78.7057 100.679 78.7057C104.168 78.7057 106.314 77.0525 106.934 74.5315H104.105C103.692 75.7508 102.64 76.4737 100.761 76.4737C98.6765 76.4737 97.3353 75.2543 97.0877 73.0644H107.016C107.036 68.7658 105.178 66.0176 100.7 66.0176C96.6739 66.0176 94.2801 68.6012 94.2801 72.4033ZM104.105 71.1839H97.1288C97.4802 69.2212 98.7597 68.1879 100.679 68.1879C102.867 68.1879 103.919 69.3652 104.105 71.1839ZM108.378 66.2242H111.144V69.4895C111.845 67.3202 113.229 66.0176 115.747 66.0176C118.596 66.0176 120.205 67.7119 120.205 70.6462V78.4991H117.439V71.0399C117.439 69.0567 116.428 68.1468 114.447 68.1468C112.857 68.1468 111.867 68.7873 111.144 70.1722V78.5H108.378V66.2242ZM124.252 74.7393H121.362C121.671 77.1986 123.51 78.7078 127.473 78.7078C131.436 78.7078 133.108 77.0752 133.108 74.8852C133.108 73.0263 132.221 71.7443 129.537 71.4348L125.842 71.0009C124.748 70.8765 124.356 70.4427 124.356 69.7199C124.356 68.8521 125.016 68.191 127.122 68.191C129.227 68.191 129.949 68.8932 130.114 69.9676H132.984C132.633 67.6328 131.125 66.0207 127.204 66.0207C123.283 66.0207 121.693 67.6945 121.693 69.8844C121.693 71.806 122.705 72.9636 125.409 73.2731L128.959 73.6864C130.136 73.8314 130.445 74.327 130.445 74.9881C130.445 75.8764 129.64 76.5375 127.535 76.5375C125.429 76.5375 124.479 75.9586 124.252 74.7393ZM146.296 66.2274L141.156 81.5188H134.448V79.2456H139.113L139.794 77.1585H137.131L133.106 66.2274H136.16L139.855 76.9724L143.405 66.2274H146.296ZM149.145 74.7393H146.255C146.564 77.1986 148.402 78.7078 152.365 78.7078C156.329 78.7078 158.001 77.0752 158.001 74.8852C158.001 73.0263 157.113 71.7443 154.43 71.4348L150.735 71.0009C149.641 70.8765 149.249 70.4427 149.249 69.7199C149.249 68.8521 149.909 68.191 152.014 68.191C154.12 68.191 154.842 68.8932 155.007 69.9676H157.876C157.525 67.6328 156.018 66.0207 152.097 66.0207C148.175 66.0207 146.586 67.6945 146.586 69.8844C146.586 71.806 147.597 72.9636 150.301 73.2731L153.852 73.6864C155.028 73.8314 155.338 74.327 155.338 74.9881C155.338 75.8764 154.532 76.5375 152.427 76.5375C150.322 76.5375 149.372 75.9586 149.145 74.7393ZM33.718 78.5022V83.1055C33.718 92.4263 26.1701 99.9825 16.8595 99.9825C7.54874 99.9825 0 92.4255 0 83.1045C0 73.7835 7.54777 66.2274 16.8585 66.2274H21.4567L13.0274 74.6659V86.9446H25.2868L33.718 78.5022ZM33.718 66.2274V78.5022H21.4567V66.2274H33.718Z"
      fill="#43505F"
      fill-opacity="0.84"
    />
  </g>
  <defs>
    <clipPath id="clip0_6073_1059">
      <rect width="158" height="158" fill="white" />
    </clipPath>
  </defs>
</svg>
